<svg width="138" height="46" viewBox="0 0 138 46" fill="none" xmlns="http://www.w3.org/2000/svg">
<g clip-path="url(#clip0_240_1322)">
<path d="M127.011 0.0001495H10.9957C10.5728 0.0001495 10.155 0.0001495 9.73319 0.0024495C9.38013 0.0047495 9.02988 0.011431 8.67343 0.0170545C7.89905 0.0261416 7.1265 0.0940772 6.36248 0.220271C5.59953 0.349212 4.86048 0.592303 4.17033 0.941321C3.48102 1.29329 2.85118 1.75064 2.30365 2.29678C1.75326 2.84138 1.29446 3.47087 0.944898 4.16103C0.594374 4.84982 0.35132 5.58793 0.22413 6.34985C0.0957306 7.11081 0.0266377 7.88055 0.0174714 8.65215C0.00676945 9.00474 0.00563929 9.3585 0 9.71114V36.2925C0.00563929 36.6496 0.00676945 36.9955 0.0174714 37.3527C0.0266405 38.1243 0.0957334 38.894 0.22413 39.6549C0.350969 40.4173 0.594037 41.1558 0.944898 41.8449C1.2943 42.5328 1.75316 43.1597 2.30365 43.7013C2.8491 44.2499 3.47935 44.7075 4.17033 45.0568C4.86047 45.4068 5.59944 45.6513 6.36248 45.7822C7.12663 45.9074 7.8991 45.9754 8.67343 45.9855C9.02988 45.9934 9.38013 45.9978 9.73319 45.9978C10.1549 46.0001 10.5728 46.0001 10.9957 46.0001H127.011C127.425 46.0001 127.846 46.0001 128.261 45.9978C128.612 45.9978 128.972 45.9934 129.324 45.9855C130.097 45.9759 130.868 45.9079 131.63 45.7822C132.396 45.6504 133.137 45.4059 133.831 45.0568C134.521 44.7073 135.151 44.2497 135.696 43.7013C136.245 43.1576 136.705 42.5311 137.059 41.8449C137.407 41.1553 137.647 40.4168 137.772 39.6549C137.901 38.8939 137.973 38.1244 137.987 37.3527C137.991 36.9955 137.991 36.6496 137.991 36.2925C138 35.8747 138 35.4592 138 35.0347V10.9667C138 10.5456 138 10.1278 137.991 9.71114C137.991 9.3585 137.991 9.00474 137.987 8.65211C137.973 7.88044 137.901 7.11087 137.772 6.34981C137.647 5.58832 137.406 4.85028 137.059 4.16099C136.347 2.77762 135.218 1.65158 133.831 0.941217C133.137 0.593052 132.396 0.350026 131.63 0.220167C130.868 0.0934177 130.097 0.0254584 129.324 0.0168935C128.972 0.0112815 128.612 0.0045425 128.261 0.0023C127.846 0 127.425 0 127.011 0V0.0001495Z" fill="#A6A6A6"/>
<path d="M9.73887 44.9943C9.38751 44.9943 9.04463 44.9899 8.69602 44.982C7.97385 44.9727 7.25336 44.91 6.54048 44.7945C5.87574 44.6803 5.2318 44.4679 4.62988 44.1644C4.03347 43.8633 3.48951 43.4686 3.01882 42.9953C2.54131 42.5276 2.14377 41.9851 1.84193 41.3893C1.53678 40.7897 1.32559 40.147 1.21573 39.4835C1.09709 38.7707 1.0329 38.0499 1.02372 37.3273C1.01641 37.0848 1.00684 36.2772 1.00684 36.2772V9.71158C1.00684 9.71158 1.01703 8.91646 1.02378 8.68286C1.03257 7.96144 1.09639 7.24174 1.21467 6.52998C1.32473 5.86472 1.53608 5.22015 1.8414 4.61856C2.14213 4.02322 2.53746 3.48033 3.01209 3.01092C3.48619 2.53705 4.03189 2.14028 4.62931 1.83508C5.22985 1.53249 5.87258 1.32163 6.53597 1.20955C7.2512 1.0929 7.97418 1.02983 8.69886 1.02088L9.73944 1.00684H128.255L129.308 1.02144C130.026 1.02995 130.743 1.09245 131.451 1.20842C132.121 1.32191 132.771 1.53424 133.378 1.83845C134.575 2.45352 135.549 3.42662 136.163 4.62137C136.464 5.2188 136.672 5.85812 136.78 6.51762C136.9 7.23523 136.967 7.96059 136.981 8.68792C136.984 9.0136 136.984 9.36343 136.984 9.71158C136.993 10.1428 136.993 10.5533 136.993 10.9671V35.0351C136.993 35.4529 136.993 35.8606 136.984 36.2716C136.984 36.6456 136.984 36.9882 136.98 37.3407C136.966 38.0551 136.9 38.7675 136.783 39.4723C136.675 40.1405 136.465 40.7882 136.16 41.3928C135.856 41.9821 135.461 42.5198 134.989 42.9863C134.518 43.4622 133.973 43.8592 133.375 44.1622C132.769 44.4681 132.121 44.6812 131.451 44.7945C130.738 44.9106 130.018 44.9733 129.296 44.982C128.958 44.9899 128.604 44.9943 128.261 44.9943L127.011 44.9966L9.73887 44.9943Z" fill="black"/>
<path d="M28.564 23.3462C28.5764 22.3863 28.832 21.4452 29.3072 20.6103C29.7823 19.7755 30.4615 19.074 31.2816 18.5713C30.7606 17.8294 30.0734 17.2188 29.2744 16.788C28.4754 16.3573 27.5867 16.1183 26.6789 16.09C24.7423 15.8873 22.8649 17.2455 21.8781 17.2455C20.8722 17.2455 19.3528 16.1101 17.7167 16.1437C16.6584 16.1777 15.627 16.4846 14.723 17.0344C13.819 17.5842 13.0733 18.3581 12.5584 19.2807C10.328 23.1314 11.9917 28.7906 14.1282 31.9032C15.1971 33.4273 16.4464 35.1299 18.081 35.0695C19.6806 35.0033 20.278 34.0523 22.2089 34.0523C24.1218 34.0523 24.6823 35.0695 26.3501 35.0311C28.0666 35.0033 29.148 33.5002 30.1794 31.9616C30.9474 30.8756 31.5384 29.6753 31.9305 28.4052C30.9333 27.9846 30.0823 27.2806 29.4836 26.381C28.885 25.4813 28.5651 24.4259 28.564 23.3462Z" fill="white"/>
<path d="M25.4138 14.0425C26.3496 12.9222 26.8107 11.4822 26.6991 10.0283C25.2692 10.1781 23.9485 10.8595 23 11.9369C22.5362 12.4632 22.181 13.0755 21.9547 13.7388C21.7284 14.4021 21.6354 15.1033 21.681 15.8025C22.3962 15.8098 23.1037 15.6552 23.7503 15.3504C24.3968 15.0455 24.9656 14.5984 25.4138 14.0425Z" fill="white"/>
<path d="M48.7841 31.2108H43.3254L42.0145 35.0707H39.7024L44.8728 20.79H47.275L52.4453 35.0707H50.0938L48.7841 31.2108ZM43.8907 29.4297H48.2176L46.0846 23.1653H46.0249L43.8907 29.4297Z" fill="white"/>
<path d="M63.6116 29.8652C63.6116 33.1007 61.875 35.1794 59.2544 35.1794C58.5905 35.214 57.9303 35.0615 57.3493 34.7394C56.7683 34.4172 56.29 33.9384 55.9692 33.3578H55.9196V38.5148H53.7765V24.6587H55.851V26.3904H55.8904C56.2259 25.8126 56.7123 25.3363 57.2977 25.0122C57.8831 24.688 58.5457 24.5282 59.2149 24.5498C61.8648 24.5498 63.6116 26.6386 63.6116 29.8652ZM61.4088 29.8652C61.4088 27.7572 60.3164 26.3714 58.6496 26.3714C57.0121 26.3714 55.9107 27.7864 55.9107 29.8652C55.9107 31.963 57.0121 33.3679 58.6496 33.3679C60.3164 33.3679 61.4088 31.9922 61.4088 29.8652Z" fill="white"/>
<path d="M75.1033 29.8652C75.1033 33.1007 73.3667 35.1794 70.746 35.1794C70.0821 35.214 69.4219 35.0615 68.8409 34.7394C68.2599 34.4172 67.7817 33.9384 67.4609 33.3578H67.4113V38.5148H65.2681V24.6587H67.3426V26.3904H67.382C67.7175 25.8126 68.2039 25.3363 68.7893 25.0122C69.3747 24.688 70.0373 24.5282 70.7065 24.5498C73.3565 24.5498 75.1033 26.6386 75.1033 29.8652ZM72.9004 29.8652C72.9004 27.7572 71.808 26.3713 70.1412 26.3713C68.5037 26.3713 67.4023 27.7864 67.4023 29.8652C67.4023 31.963 68.5037 33.3679 70.1412 33.3679C71.808 33.3679 72.9004 31.9922 72.9004 29.8652H72.9004Z" fill="white"/>
<path d="M82.6985 31.0916C82.8573 32.5078 84.2369 33.4376 86.1222 33.4376C87.9286 33.4376 89.2282 32.5077 89.2282 31.2308C89.2282 30.1224 88.4444 29.4587 86.5884 29.0038L84.7324 28.558C82.1028 27.9246 80.882 26.6982 80.882 24.7082C80.882 22.2442 83.0353 20.5518 86.0929 20.5518C89.119 20.5518 91.1934 22.2442 91.2633 24.7082H89.0998C88.9703 23.283 87.7889 22.4228 86.0624 22.4228C84.336 22.4228 83.1546 23.2931 83.1546 24.5599C83.1546 25.5695 83.9092 26.1636 85.755 26.6184L87.3328 27.0048C90.271 27.6977 91.4919 28.8747 91.4919 30.9635C91.4919 33.6352 89.3577 35.3086 85.9633 35.3086C82.7874 35.3086 80.6432 33.6745 80.5046 31.0915L82.6985 31.0916Z" fill="white"/>
<path d="M96.1172 22.1953V24.6593H98.1027V26.3517H96.1172V32.0916C96.1172 32.9833 96.5148 33.3988 97.3876 33.3988C97.6233 33.3947 97.8586 33.3782 98.0926 33.3494V35.0317C97.7002 35.1048 97.3013 35.1379 96.9022 35.1305C94.7883 35.1305 93.9639 34.3388 93.9639 32.3195V26.3517H92.4458V24.6593H93.9639V22.1953H96.1172Z" fill="white"/>
<path d="M99.2525 29.8657C99.2525 26.5898 101.187 24.5312 104.204 24.5312C107.232 24.5312 109.157 26.5897 109.157 29.8657C109.157 33.1506 107.242 35.2002 104.204 35.2002C101.168 35.2002 99.2525 33.1506 99.2525 29.8657ZM106.974 29.8657C106.974 27.6185 105.941 26.2922 104.204 26.2922C102.468 26.2922 101.436 27.6286 101.436 29.8657C101.436 32.1219 102.468 33.4381 104.204 33.4381C105.941 33.4381 106.974 32.1219 106.974 29.8657H106.974Z" fill="white"/>
<path d="M110.924 24.6586H112.968V26.4308H113.018C113.156 25.8773 113.481 25.3882 113.939 25.0456C114.396 24.703 114.958 24.5279 115.529 24.5497C115.776 24.5488 116.023 24.5756 116.264 24.6294V26.6284C115.952 26.5334 115.627 26.4898 115.301 26.4993C114.989 26.4867 114.679 26.5414 114.391 26.6597C114.103 26.7781 113.844 26.9572 113.632 27.1847C113.419 27.4123 113.259 27.683 113.162 27.9781C113.064 28.2733 113.032 28.586 113.067 28.8947V35.0704H110.924L110.924 24.6586Z" fill="white"/>
<path d="M126.145 32.013C125.857 33.9031 124.011 35.2002 121.649 35.2002C118.612 35.2002 116.727 33.1708 116.727 29.9151C116.727 26.6493 118.622 24.5312 121.559 24.5312C124.448 24.5312 126.264 26.5101 126.264 29.6669V30.3992H118.89V30.5283C118.856 30.9115 118.904 31.2975 119.031 31.6607C119.158 32.0239 119.361 32.356 119.627 32.635C119.893 32.9139 120.215 33.1333 120.572 33.2785C120.929 33.4238 121.313 33.4916 121.699 33.4774C122.205 33.5248 122.713 33.4078 123.148 33.1439C123.582 32.8801 123.92 32.4834 124.11 32.013L126.145 32.013ZM118.9 28.9055H124.12C124.139 28.561 124.087 28.2162 123.966 27.8928C123.846 27.5694 123.659 27.2744 123.419 27.0263C123.178 26.7781 122.889 26.5823 122.569 26.4509C122.249 26.3196 121.905 26.2556 121.559 26.263C121.21 26.2609 120.864 26.3278 120.541 26.4597C120.218 26.5917 119.925 26.7861 119.678 27.0318C119.43 27.2775 119.234 27.5695 119.101 27.8911C118.968 28.2127 118.899 28.5575 118.9 28.9055V28.9055Z" fill="white"/>
<path d="M43.6224 10.041C44.0717 10.0088 44.5225 10.0765 44.9424 10.2392C45.3624 10.4018 45.7408 10.6554 46.0506 10.9815C46.3603 11.3077 46.5936 11.6984 46.7336 12.1253C46.8736 12.5523 46.9168 13.0049 46.8602 13.4506C46.8602 15.6427 45.6721 16.9029 43.6224 16.9029H41.1368V10.041H43.6224ZM42.2056 15.9324H43.503C43.824 15.9516 44.1453 15.8991 44.4435 15.7788C44.7417 15.6585 45.0092 15.4734 45.2265 15.237C45.4439 15.0006 45.6057 14.7188 45.7001 14.4122C45.7945 14.1056 45.8192 13.7819 45.7723 13.4645C45.8158 13.1485 45.7886 12.8267 45.6927 12.5224C45.5969 12.218 45.4347 11.9386 45.2178 11.704C45.0009 11.4695 44.7347 11.2857 44.4383 11.1659C44.1418 11.046 43.8224 10.993 43.503 11.0107H42.2056V15.9324Z" fill="white"/>
<path d="M48.0676 14.3118C48.0349 13.9715 48.0739 13.6282 48.1822 13.3038C48.2904 12.9794 48.4654 12.6812 48.696 12.4282C48.9266 12.1752 49.2076 11.9731 49.5211 11.8348C49.8346 11.6964 50.1737 11.625 50.5165 11.625C50.8593 11.625 51.1983 11.6964 51.5118 11.8348C51.8253 11.9731 52.1064 12.1752 52.337 12.4282C52.5676 12.6812 52.7426 12.9794 52.8508 13.3038C52.959 13.6282 52.9981 13.9715 52.9654 14.3118C52.9987 14.6525 52.9601 14.9963 52.8522 15.3212C52.7442 15.6461 52.5693 15.9449 52.3387 16.1984C52.108 16.4519 51.8268 16.6544 51.513 16.793C51.1991 16.9317 50.8597 17.0033 50.5165 17.0033C50.1733 17.0033 49.8338 16.9317 49.52 16.793C49.2062 16.6544 48.9249 16.4519 48.6943 16.1984C48.4636 15.9449 48.2887 15.6461 48.1808 15.3212C48.0729 14.9963 48.0343 14.6525 48.0676 14.3118ZM51.9113 14.3118C51.9113 13.1894 51.4056 12.5329 50.5182 12.5329C49.6273 12.5329 49.1262 13.1894 49.1262 14.3118C49.1262 15.4433 49.6274 16.0947 50.5182 16.0947C51.4056 16.0947 51.9113 15.4388 51.9113 14.3118H51.9113Z" fill="white"/>
<path d="M59.4759 16.903H58.4128L57.3395 13.0891H57.2584L56.1897 16.903H55.1367L53.7053 11.7246H54.7447L55.675 15.676H55.7516L56.8192 11.7246H57.8024L58.87 15.676H58.9511L59.8768 11.7246H60.9017L59.4759 16.903Z" fill="white"/>
<path d="M62.1055 11.7252H63.092V12.5478H63.1686C63.2985 12.2523 63.5176 12.0047 63.7954 11.8393C64.0732 11.6739 64.3958 11.5991 64.7183 11.6252C64.9709 11.6063 65.2246 11.6443 65.4606 11.7364C65.6965 11.8285 65.9087 11.9724 66.0813 12.1573C66.2539 12.3423 66.3826 12.5636 66.4578 12.8049C66.533 13.0462 66.5528 13.3013 66.5157 13.5512V16.9035H65.4908V13.8079C65.4908 12.9757 65.1282 12.5618 64.3703 12.5618C64.1987 12.5539 64.0275 12.583 63.8682 12.6472C63.709 12.7114 63.5656 12.8092 63.4479 12.9338C63.3301 13.0585 63.2407 13.207 63.1859 13.3693C63.1311 13.5316 63.1121 13.7038 63.1303 13.8741V16.9035H62.1055L62.1055 11.7252Z" fill="white"/>
<path d="M68.1486 9.70312H69.1735V16.903H68.1486V9.70312Z" fill="white"/>
<path d="M70.5982 14.3119C70.5655 13.9716 70.6046 13.6282 70.7129 13.3038C70.8211 12.9794 70.9961 12.6812 71.2267 12.4282C71.4573 12.1752 71.7384 11.9731 72.0519 11.8348C72.3655 11.6965 72.7045 11.625 73.0474 11.625C73.3902 11.625 73.7293 11.6965 74.0428 11.8348C74.3563 11.9731 74.6374 12.1752 74.868 12.4282C75.0986 12.6812 75.2736 12.9794 75.3819 13.3038C75.4901 13.6282 75.5292 13.9716 75.4966 14.3119C75.5298 14.6526 75.4912 14.9964 75.3832 15.3213C75.2752 15.6462 75.1003 15.945 74.8697 16.1985C74.639 16.452 74.3577 16.6545 74.0439 16.7931C73.73 16.9317 73.3906 17.0033 73.0474 17.0033C72.7041 17.0033 72.3647 16.9317 72.0509 16.7931C71.737 16.6545 71.4557 16.452 71.2251 16.1985C70.9944 15.945 70.8195 15.6462 70.7115 15.3213C70.6036 14.9964 70.5649 14.6526 70.5982 14.3119ZM74.4419 14.3119C74.4419 13.1895 73.9362 12.533 73.0488 12.533C72.158 12.533 71.6568 13.1895 71.6568 14.3119C71.6568 15.4434 72.158 16.0948 73.0488 16.0948C73.9362 16.0948 74.4419 15.4389 74.4419 14.3119H74.4419Z" fill="white"/>
<path d="M76.5756 15.4389C76.5756 14.5067 77.2716 13.9694 78.507 13.893L79.9137 13.8121V13.3652C79.9137 12.8182 79.551 12.5094 78.8505 12.5094C78.2784 12.5094 77.882 12.7188 77.7683 13.085H76.7761C76.8808 12.1955 77.7198 11.625 78.8978 11.625C80.1997 11.625 80.934 12.2713 80.934 13.3652V16.9033H79.9475V16.1756H79.8664C79.7018 16.4366 79.4707 16.6494 79.1967 16.7923C78.9226 16.9351 78.6155 17.0029 78.3066 16.9886C78.0886 17.0112 77.8683 16.9881 77.6598 16.9205C77.4513 16.853 77.2594 16.7427 77.0963 16.5967C76.9332 16.4507 76.8026 16.2722 76.7129 16.0728C76.6233 15.8734 76.5765 15.6574 76.5756 15.4389ZM79.9137 14.9964V14.5634L78.6456 14.6443C77.9304 14.692 77.6061 14.9346 77.6061 15.3911C77.6061 15.8572 78.0115 16.1284 78.569 16.1284C78.7324 16.1449 78.8974 16.1284 79.0542 16.08C79.2111 16.0316 79.3566 15.9523 79.482 15.8466C79.6075 15.741 79.7103 15.6113 79.7845 15.4653C79.8587 15.3192 79.9026 15.1597 79.9137 14.9964Z" fill="white"/>
<path d="M82.281 14.3116C82.281 12.6753 83.1245 11.6387 84.4365 11.6387C84.7611 11.6238 85.0832 11.7013 85.3652 11.8622C85.6472 12.0231 85.8774 12.2607 86.029 12.5472H86.1056V9.70312H87.1304V16.903H86.1484V16.0848H86.0673C85.904 16.3694 85.6657 16.6041 85.3783 16.7633C85.0908 16.9226 84.7652 17.0004 84.4366 16.9883C83.1155 16.9884 82.281 15.9518 82.281 14.3116ZM83.3397 14.3116C83.3397 15.4099 83.8589 16.0708 84.7272 16.0708C85.5909 16.0708 86.1248 15.4004 86.1248 14.3161C86.1248 13.2368 85.5853 12.5568 84.7272 12.5568C83.8644 12.5568 83.3396 13.2222 83.3396 14.3116H83.3397Z" fill="white"/>
<path d="M91.3706 14.3118C91.3379 13.9715 91.377 13.6282 91.4852 13.3038C91.5934 12.9794 91.7684 12.6812 91.999 12.4282C92.2296 12.1752 92.5106 11.9731 92.8241 11.8348C93.1377 11.6964 93.4767 11.625 93.8195 11.625C94.1623 11.625 94.5014 11.6964 94.8149 11.8348C95.1284 11.9731 95.4094 12.1752 95.64 12.4282C95.8706 12.6812 96.0456 12.9794 96.1538 13.3038C96.262 13.6282 96.3011 13.9715 96.2684 14.3118C96.3017 14.6525 96.2631 14.9963 96.1552 15.3212C96.0473 15.6461 95.8723 15.9449 95.6417 16.1984C95.4111 16.4519 95.1298 16.6544 94.816 16.793C94.5022 16.9317 94.1627 17.0033 93.8195 17.0033C93.4763 17.0033 93.1368 16.9317 92.823 16.793C92.5092 16.6544 92.2279 16.4519 91.9973 16.1984C91.7667 15.9449 91.5918 15.6461 91.4838 15.3212C91.3759 14.9963 91.3373 14.6525 91.3706 14.3118ZM95.2143 14.3118C95.2143 13.1894 94.7086 12.5329 93.8212 12.5329C92.9304 12.5329 92.4293 13.1894 92.4293 14.3118C92.4293 15.4433 92.9304 16.0947 93.8212 16.0947C94.7086 16.0947 95.2143 15.4388 95.2143 14.3118Z" fill="white"/>
<path d="M97.6434 11.7252H98.63V12.5478H98.7066C98.8365 12.2523 99.0556 12.0047 99.3334 11.8393C99.6112 11.6739 99.9338 11.5991 100.256 11.6252C100.509 11.6063 100.763 11.6443 100.999 11.7364C101.234 11.8285 101.447 11.9724 101.619 12.1573C101.792 12.3423 101.921 12.5636 101.996 12.8049C102.071 13.0462 102.091 13.3013 102.054 13.5512V16.9035H101.029V13.8079C101.029 12.9757 100.666 12.5618 99.9082 12.5618C99.7367 12.5539 99.5654 12.583 99.4062 12.6472C99.247 12.7114 99.1036 12.8092 98.9858 12.9338C98.868 13.0585 98.7787 13.207 98.7239 13.3693C98.6691 13.5316 98.6501 13.7038 98.6683 13.8741V16.9035H97.6434V11.7252Z" fill="white"/>
<path d="M107.844 10.4355V11.7484H108.97V12.6092H107.844V15.272C107.844 15.8144 108.069 16.0519 108.579 16.0519C108.709 16.0515 108.84 16.0436 108.97 16.0283V16.8796C108.785 16.9124 108.599 16.9299 108.412 16.9318C107.272 16.9318 106.818 16.532 106.818 15.5336V12.6092H105.994V11.7483H106.818V10.4355H107.844Z" fill="white"/>
<path d="M110.369 9.70312H111.385V12.5568H111.466C111.602 12.2586 111.827 12.0095 112.111 11.8435C112.394 11.6775 112.722 11.6026 113.049 11.6292C113.301 11.6155 113.552 11.6574 113.785 11.7517C114.019 11.8461 114.228 11.9906 114.399 12.175C114.57 12.3594 114.698 12.5791 114.774 12.8184C114.849 13.0578 114.871 13.3109 114.838 13.5597V16.903H113.812V13.8118C113.812 12.9847 113.426 12.5658 112.702 12.5658C112.525 12.5514 112.348 12.5755 112.182 12.6365C112.017 12.6975 111.866 12.7939 111.742 12.919C111.617 13.044 111.522 13.1947 111.461 13.3605C111.401 13.5262 111.378 13.7031 111.394 13.8786V16.903H110.369L110.369 9.70312Z" fill="white"/>
<path d="M120.814 15.5052C120.675 15.9785 120.373 16.3879 119.962 16.6617C119.55 16.9356 119.055 17.0565 118.564 17.0033C118.222 17.0124 117.882 16.947 117.567 16.8119C117.253 16.6767 116.972 16.475 116.744 16.2207C116.516 15.9663 116.346 15.6656 116.246 15.3392C116.146 15.0128 116.118 14.6686 116.165 14.3305C116.119 13.9914 116.147 13.6465 116.247 13.3191C116.347 12.9917 116.516 12.6895 116.743 12.433C116.97 12.1765 117.25 11.9716 117.563 11.8322C117.876 11.6928 118.216 11.6222 118.559 11.6251C120.004 11.6251 120.876 12.6095 120.876 14.2356V14.5922H117.209V14.6495C117.193 14.8395 117.217 15.0308 117.279 15.211C117.342 15.3913 117.441 15.5566 117.571 15.6962C117.702 15.8359 117.86 15.9469 118.035 16.0221C118.211 16.0973 118.401 16.1351 118.592 16.133C118.837 16.1623 119.085 16.1183 119.305 16.0065C119.525 15.8947 119.707 15.7202 119.827 15.5052L120.814 15.5052ZM117.209 13.8364H119.832C119.845 13.6626 119.821 13.488 119.762 13.3239C119.704 13.1597 119.611 13.0097 119.491 12.8834C119.37 12.757 119.225 12.6572 119.063 12.5903C118.902 12.5234 118.728 12.4909 118.554 12.4949C118.376 12.4927 118.2 12.5259 118.036 12.5925C117.872 12.6591 117.723 12.7579 117.598 12.8829C117.472 13.0079 117.373 13.1567 117.307 13.3204C117.24 13.4842 117.207 13.6596 117.209 13.8364H117.209Z" fill="white"/>
</g>
<defs>
<clipPath id="clip0_240_1322">
<rect width="138" height="46" fill="white"/>
</clipPath>
</defs>
</svg>
