<svg width="96" height="51" viewBox="0 0 96 51" fill="none" xmlns="http://www.w3.org/2000/svg">
<path d="M1.99993 28.9996C0.895359 28.9996 -7.17389e-05 29.895 -8.68834e-05 30.9996L-0.000205258 48.9996C-0.000218037 50.1042 0.895209 50.9996 1.99978 50.9996C3.10435 50.9996 3.99979 50.1042 3.99979 48.9996L3.9999 32.9996L19.9999 32.9997C21.1045 32.9997 21.9999 32.1043 21.9999 30.9997C21.9999 29.8952 21.1045 28.9997 19.9999 28.9997L1.99993 28.9996ZM92.7642 5.91755L90.8245 5.43018L92.7642 5.91755ZM92.0602 0.512242L90.8245 5.43018L94.704 6.40492L95.9396 1.48698L92.0602 0.512242ZM90.8245 5.43018C80.9582 44.698 32.0436 58.2152 3.41414 29.5854L0.585697 32.4138C31.4121 63.2407 84.0804 48.6862 94.704 6.40492L90.8245 5.43018Z" fill="black"/>
</svg>
