<svg width="27" height="21" viewBox="0 0 27 21" fill="none" xmlns="http://www.w3.org/2000/svg">
<path d="M23.8125 3.9375H20.3555C20.1797 3.9375 19.9617 3.82383 19.7918 3.64453L18.2719 1.2457C18.2478 1.20763 18.221 1.1714 18.1916 1.1373C17.6666 0.525 16.957 0.1875 16.1953 0.1875H10.8047C10.043 0.1875 9.3334 0.525 8.8084 1.1373C8.77899 1.1714 8.75216 1.20763 8.72812 1.2457L7.2082 3.64805C7.07812 3.78984 6.89531 3.94102 6.70312 3.94102V3.47227C6.70312 3.22362 6.60435 2.98517 6.42854 2.80935C6.25272 2.63354 6.01427 2.53477 5.76562 2.53477H4.35938C4.11073 2.53477 3.87228 2.63354 3.69646 2.80935C3.52065 2.98517 3.42188 3.22362 3.42188 3.47227V3.94102H3.1875C2.44182 3.94179 1.7269 4.23836 1.19962 4.76563C0.672341 5.29291 0.375776 6.00783 0.375 6.75352V18C0.375776 18.7457 0.672341 19.4606 1.19962 19.9879C1.7269 20.5152 2.44182 20.8117 3.1875 20.8125H23.8125C24.5582 20.8117 25.2731 20.5152 25.8004 19.9879C26.3277 19.4606 26.6242 18.7457 26.625 18V6.75C26.6242 6.00432 26.3277 5.2894 25.8004 4.76212C25.2731 4.23484 24.5582 3.93828 23.8125 3.9375ZM13.5 17.0625C12.3875 17.0625 11.2999 16.7326 10.3749 16.1145C9.44989 15.4964 8.72892 14.6179 8.30318 13.5901C7.87744 12.5623 7.76604 11.4313 7.98308 10.3401C8.20013 9.24897 8.73585 8.24669 9.52252 7.46002C10.3092 6.67335 11.3115 6.13763 12.4026 5.92058C13.4938 5.70354 14.6248 5.81494 15.6526 6.24068C16.6804 6.66642 17.5589 7.38739 18.177 8.31242C18.7951 9.23744 19.125 10.325 19.125 11.4375C19.1233 12.9288 18.5301 14.3586 17.4756 15.4131C16.4211 16.4676 14.9913 17.0608 13.5 17.0625Z" fill="#B3B7C6"/>
</svg>
