<svg width="21" height="20" viewBox="0 0 21 20" fill="none" xmlns="http://www.w3.org/2000/svg">
<path d="M17.9004 10V15.8333C17.9004 16.2754 17.7248 16.6993 17.4122 17.0118C17.0997 17.3244 16.6758 17.5 16.2337 17.5H4.56706C4.12503 17.5 3.70111 17.3244 3.38855 17.0118C3.07599 16.6993 2.90039 16.2754 2.90039 15.8333V10H17.9004ZM13.7337 2.5C13.9547 2.5 14.1667 2.5878 14.323 2.74408C14.4793 2.90036 14.5671 3.11232 14.5671 3.33333V4.16667H16.2337C16.6758 4.16667 17.0997 4.34226 17.4122 4.65482C17.7248 4.96738 17.9004 5.39131 17.9004 5.83333V8.33333H2.90039V5.83333C2.90039 5.39131 3.07599 4.96738 3.38855 4.65482C3.70111 4.34226 4.12503 4.16667 4.56706 4.16667H6.23372V3.33333C6.23372 3.11232 6.32152 2.90036 6.4778 2.74408C6.63408 2.5878 6.84604 2.5 7.06706 2.5C7.28807 2.5 7.50003 2.5878 7.65631 2.74408C7.81259 2.90036 7.90039 3.11232 7.90039 3.33333V4.16667H12.9004V3.33333C12.9004 3.11232 12.9882 2.90036 13.1445 2.74408C13.3007 2.5878 13.5127 2.5 13.7337 2.5Z" fill="#B3B7C6"/>
</svg>
