<svg width="181" height="202" viewBox="0 0 181 202" fill="none" xmlns="http://www.w3.org/2000/svg">
<path d="M163.517 62.4189C158.335 48.9758 147.978 39.9962 135.561 32.8756C108.574 17.3981 89.5275 15.4162 71.2745 29.7012C53.0215 43.9862 37.1449 71.3679 25.6398 77.3221C14.1303 83.2764 5.00156 90.8179 5.79517 113.438C6.58878 136.058 22.86 132.09 24.8418 150.343C26.828 168.596 39.5257 183.28 60.5586 187.248C81.5914 191.216 88.3393 176.137 106.987 172.963C125.639 169.789 128.414 180.105 152.622 176.931C176.829 173.757 184.37 132.884 179.604 110.259C177.162 98.6619 173.369 86.9901 168.656 76.1427C166.736 71.7143 165.28 66.9877 163.517 62.4189Z" fill="#6747C7"/>
<path opacity="0.7" d="M163.517 62.4189C158.335 48.9758 147.978 39.9962 135.561 32.8756C108.574 17.3981 89.5275 15.4162 71.2745 29.7012C53.0215 43.9862 37.1449 71.3679 25.6398 77.3221C14.1303 83.2764 5.00156 90.8179 5.79517 113.438C6.58878 136.058 22.86 132.09 24.8418 150.343C26.828 168.596 39.5257 183.28 60.5586 187.248C81.5914 191.216 88.3393 176.137 106.987 172.963C125.639 169.789 128.414 180.105 152.622 176.931C176.829 173.757 184.37 132.884 179.604 110.259C177.162 98.6619 173.369 86.9901 168.656 76.1427C166.736 71.7143 165.28 66.9877 163.517 62.4189Z" fill="white"/>
<path d="M65.8851 99.3733C65.8851 99.3733 57.8833 101.759 53.5162 97.9396C49.1492 94.1206 60.5491 89.8237 64.4295 91.2575C68.3098 92.6912 65.644 97.4617 59.8213 95.3176C54.0029 93.1692 50.3637 89.587 60.0624 88.3944C69.7611 87.2017 64.1839 91.4986 60.7903 86.0091C57.3966 80.5196 66.8541 73.1185 71.7035 74.5522C76.5528 75.986 68.0643 80.9976 65.1573 78.1344C62.2459 75.2713 49.877 69.0627 70.0066 68.1069C90.1363 67.1511 84.0724 73.1185 79.9509 73.1185C75.8294 73.1185 65.8851 63.0909 72.1902 62.1395C78.4952 61.1836 86.7426 66.9143 86.4971 70.2553C86.2515 73.5964 75.825 65.2438 81.161 59.7543C86.4971 54.2648 93.0432 59.7543 94.0122 65.9584C94.9812 72.1626 87.7072 73.3596 89.8907 66.6731C92.0742 59.991 95.4679 54.9751 98.6204 61.1836C101.773 67.3878 102.26 75.5037 100.558 74.5522C98.8616 73.5964 96.6781 55.4574 105.167 62.1395C113.655 68.8216 112.927 74.0743 111.23 75.7448C109.534 77.4154 100.317 57.3647 112.927 66.1952C125.537 75.0258 112.441 81.7122 115.352 87.2017C118.263 92.6912 126.993 88.3943 124.81 77.4154C122.626 66.4364 117.29 69.7774 114.137 75.9816C110.985 82.1858 121.17 98.4175 124.81 91.7354C125.691 90.1175 126.142 88.2365 126.283 86.395C126.717 80.638 124.047 75.3327 121.657 80.0373C118.504 86.2415 123.841 91.2575 129.904 89.3458C135.968 87.4341 132.553 80.8397 129.418 83.6152C126.283 86.3906 125.537 87.6753 128.203 91.4942C130.869 95.3132 132.811 106.292 124.81 103.192C116.808 100.088 125.537 92.4501 133.298 94.8397C141.059 97.2249 138.393 100.807 136.209 104.389C134.026 107.972 127.962 108.449 129.663 111.79C131.36 115.132 135.482 119.906 137.665 112.983C139.849 106.06 132.088 103.911 126.265 106.779" stroke="#263238" stroke-width="0.438458" stroke-miterlimit="10" stroke-linecap="round" stroke-linejoin="round"/>
<path d="M67.0953 102.956C67.0953 102.956 56.6687 100.092 54.9675 93.4059C53.2707 86.7238 59.5757 88.8722 59.3345 93.1691C59.0934 97.466 57.6377 103.911 53.2707 102.719C48.9036 101.526 50.3593 83.8607 56.9099 81.9534C63.4561 80.0417 71.4623 86.2503 67.5819 88.1576C63.7016 90.0692 60.3079 82.4269 64.4294 76.4595C68.5509 70.4921 76.3116 73.3552 76.0705 76.2227C75.8293 79.0859 65.644 68.1069 65.8851 64.7658C66.1263 61.4248 69.7655 55.4574 73.1591 59.5131C76.5528 63.5732 84.8002 78.13 79.9508 73.1184C75.1015 68.1069 74.1325 64.0467 78.7363 61.4204C83.3445 58.794 86.497 58.3161 86.497 64.2835C86.497 70.2509 84.8221 75.4905 85.7823 65.8313C86.7426 56.1677 94.0166 51.3972 96.6824 59.0352C99.3482 66.6731 99.8349 74.789 97.6514 68.5848C95.4679 62.3806 109.779 58.7984 108.565 61.1836C107.35 63.5688 99.8349 65.7173 102.26 67.6289C104.684 69.5406 115.597 65.0026 119.965 68.8216C124.332 72.6405 116.571 71.9258 114.146 75.9816C111.722 80.0373 127.243 73.8331 128.212 78.13C129.181 82.4269 116.084 83.6195 115.361 87.2017C114.633 90.7839 141.795 97.9439 132.579 100.092C123.363 102.241 119.728 100.329 119.482 101.048" stroke="#263238" stroke-width="0.438458" stroke-miterlimit="10" stroke-linecap="round" stroke-linejoin="round"/>
<path d="M64.6698 96.7471C64.6698 96.7471 54.9711 103.192 55.9401 105.1C56.9091 107.011 67.34 101.995 65.6388 105.336C63.942 108.678 57.1503 110.826 60.3028 111.782C63.4553 112.738 68.3046 111.304 69.5192 109.155" stroke="#263238" stroke-width="0.438458" stroke-miterlimit="10" stroke-linecap="round" stroke-linejoin="round"/>
<path d="M71.461 113.698C71.461 113.698 65.3972 111.312 62.0035 106.774C58.6098 102.241 63.218 91.7351 66.6117 90.7793" stroke="#263238" stroke-width="0.438458" stroke-miterlimit="10" stroke-linecap="round" stroke-linejoin="round"/>
<path d="M125.969 99.589C125.969 99.589 135.146 102.369 140.149 97.9228C145.152 93.4725 132.086 88.4697 127.636 90.1358C123.185 91.8019 126.246 97.366 132.919 94.8624C139.592 92.3588 143.762 88.1891 132.643 86.7991C121.519 85.4092 127.916 90.412 131.81 84.0193C135.703 77.6222 124.86 69.0065 119.296 70.6726C113.736 72.3388 123.466 78.1791 126.802 74.8424C130.139 71.5057 144.319 64.2755 121.243 63.1662C98.1623 62.0526 105.116 69.0065 109.843 69.0065C114.569 69.0065 125.969 57.3304 118.739 56.2167C111.509 55.103 102.056 61.7763 102.332 65.6698C102.608 69.5634 114.565 59.8296 108.449 53.4369C102.332 47.0398 94.8257 53.4369 93.712 60.667C92.5983 67.8972 100.942 69.2871 98.4386 61.5001C95.935 53.7131 92.0415 47.8772 88.4286 55.103C84.8157 62.3288 84.2588 71.7863 86.2056 70.6726C88.1523 69.559 90.6559 48.4297 80.9222 56.2123C71.1884 63.9993 72.0259 70.1158 73.9726 72.0626C75.9194 74.0093 86.4862 50.6527 72.0259 60.9389C57.5655 71.2251 72.5827 79.0121 69.246 85.4092C65.9094 91.8063 55.8994 86.7991 58.403 74.0093C60.9066 61.2195 67.0231 65.113 70.6359 72.3432C74.2488 79.5734 62.5727 98.4797 58.403 90.6926C57.3945 88.8073 56.8727 86.615 56.7149 84.4753C56.2194 77.7713 59.2799 71.589 62.0202 77.0698C65.6331 84.2999 59.5166 90.1402 52.5671 87.9128C45.6175 85.6898 49.5286 78.0037 53.1239 81.2395C56.7193 84.4753 57.5743 85.9661 54.5138 90.4164C51.4534 94.8668 49.2304 107.657 58.4074 104.039C67.5843 100.426 57.5743 91.5257 48.6736 94.3055C46.4506 95.0027 44.973 95.7831 44.0479 96.6294" stroke="#263238" stroke-width="0.438458" stroke-miterlimit="10" stroke-linecap="round" stroke-linejoin="round"/>
<path d="M124.576 103.758C124.576 103.758 136.532 100.422 138.479 92.6346C140.426 84.8476 133.196 87.3512 133.476 92.3584C133.753 97.3612 135.423 104.872 140.426 103.482C145.429 102.092 143.763 81.5153 136.256 79.2923C128.75 77.0694 119.573 84.2952 124.023 86.5225C128.474 88.7455 132.363 79.8492 127.636 72.8996C122.91 65.9501 114.013 69.2867 114.289 72.6234C114.566 75.9601 126.246 63.1702 125.966 59.2767C125.689 55.3832 121.515 48.4337 117.626 53.1602C113.733 57.8868 104.279 74.8464 109.839 69.0105C115.399 63.1702 116.512 58.4437 111.229 55.3876C105.946 52.3272 102.333 51.7747 102.333 58.7243C102.333 65.6738 104.253 71.7816 103.153 60.5263C102.052 49.2711 93.7126 43.7115 90.6522 52.6078C87.5917 61.5041 87.0393 70.9573 89.5385 63.7315C92.0421 56.5013 75.635 52.3316 77.0249 55.1114C78.4148 57.8912 87.0349 60.3948 84.2551 62.6178C81.4753 64.8408 68.9617 59.5573 63.9589 64.0077C58.9561 68.458 67.8524 67.6206 70.6322 72.3472C73.412 77.0737 55.6194 69.8436 54.5057 74.8508C53.392 79.8536 68.4092 81.2479 69.2423 85.4176C70.0754 89.5873 38.9361 97.9312 49.4985 100.43C60.0654 102.934 64.2351 100.707 64.5113 101.544" stroke="#263238" stroke-width="0.438458" stroke-miterlimit="10" stroke-linecap="round" stroke-linejoin="round"/>
<path d="M127.359 96.5283C127.359 96.5283 138.483 104.035 137.369 106.262C136.255 108.485 124.299 102.649 126.245 106.538C128.192 110.432 135.979 112.935 132.362 114.045C128.749 115.158 123.185 113.488 121.795 110.984" stroke="#263238" stroke-width="0.438458" stroke-miterlimit="10" stroke-linecap="round" stroke-linejoin="round"/>
<path d="M119.572 116.271C119.572 116.271 126.522 113.492 130.415 108.208C134.309 102.925 129.025 90.6918 125.132 89.5781" stroke="#263238" stroke-width="0.438458" stroke-miterlimit="10" stroke-linecap="round" stroke-linejoin="round"/>
<path d="M95.1506 17.2183C95.1506 17.2183 89.3367 16.0169 88.3326 21.0285C87.3285 26.04 88.9333 31.854 95.1506 31.6523C101.364 31.4506 105.375 33.0554 107.98 30.4509C110.584 27.8465 112.189 20.8268 107.98 18.2223C103.771 15.6179 98.5574 17.021 97.3561 17.021C96.1503 17.021 95.1506 17.2183 95.1506 17.2183Z" stroke="#263238" stroke-width="0.438458" stroke-miterlimit="10" stroke-linecap="round" stroke-linejoin="round"/>
<path d="M93.3574 23.3965L97.4877 24.611" stroke="#263238" stroke-width="0.438458" stroke-miterlimit="10" stroke-linecap="round" stroke-linejoin="round"/>
<path d="M95.2207 20.6426L98.3776 23.7206" stroke="#263238" stroke-width="0.438458" stroke-miterlimit="10" stroke-linecap="round" stroke-linejoin="round"/>
<path d="M101.535 25.0196L105.1 24.8574" stroke="#263238" stroke-width="0.438458" stroke-miterlimit="10" stroke-linecap="round" stroke-linejoin="round"/>
<path d="M100.891 24.0454L104.613 21.0508" stroke="#263238" stroke-width="0.438458" stroke-miterlimit="10" stroke-linecap="round" stroke-linejoin="round"/>
<path d="M95.3838 28.4213C95.3838 28.4213 97.0017 26.6412 98.9485 26.8034C100.891 26.9656 102.105 29.0703 102.105 29.0703" stroke="#263238" stroke-width="0.438458" stroke-miterlimit="10" stroke-linecap="round" stroke-linejoin="round"/>
<path d="M108.744 21.5332C108.744 21.5332 108.665 22.4233 107.854 22.831C107.043 23.2344 107.043 23.2344 107.043 23.2344" stroke="#263238" stroke-width="0.438458" stroke-miterlimit="10" stroke-linecap="round" stroke-linejoin="round"/>
<path d="M107.204 24.2074C107.204 24.2074 107.691 23.7207 108.256 24.0451C108.822 24.3696 108.66 24.9352 108.66 24.9352" stroke="#263238" stroke-width="0.438458" stroke-miterlimit="10" stroke-linecap="round" stroke-linejoin="round"/>
<path d="M109.799 24.5326C109.799 24.5326 109.637 23.967 109.878 23.6426" stroke="#263238" stroke-width="0.438458" stroke-miterlimit="10" stroke-linecap="round" stroke-linejoin="round"/>
<path d="M126.663 32.5737C126.663 32.5737 124.69 28.233 121.336 27.8384C117.982 27.4437 115.614 30.6006 115.614 32.9683C115.614 35.336 121.533 47.3717 121.533 47.3717V43.4255L123.112 43.6228L123.901 39.874H126.071L124.888 34.5468L126.663 35.336V32.5737Z" stroke="#263238" stroke-width="0.438458" stroke-miterlimit="10" stroke-linecap="round" stroke-linejoin="round"/>
<path d="M128.636 32.7712V36.7173L127.255 37.7039L127.847 40.0715L125.282 42.0446L124.887 44.8069L123.309 45.3988L122.717 49.7395C122.717 49.7395 125.479 47.3719 129.031 45.7934C132.582 44.215 138.107 41.0581 136.726 37.1119C135.344 33.1658 131.201 31.5874 128.636 32.7712Z" stroke="#263238" stroke-width="0.438458" stroke-miterlimit="10" stroke-linecap="round" stroke-linejoin="round"/>
<path d="M121.27 50.3092C121.27 50.3092 120.74 51.1072 121.139 51.173C121.538 51.2387 122.402 51.4404 122.467 51.173C122.533 50.9055 122.599 50.5767 122.402 50.3092C122.204 50.0417 121.871 49.7129 121.871 49.7129L121.27 50.3092Z" stroke="#263238" stroke-width="0.438458" stroke-miterlimit="10" stroke-linecap="round" stroke-linejoin="round"/>
<path d="M120.275 48.1653C120.275 48.1653 120.398 47.5778 120.148 47.6348C119.903 47.6874 119.355 47.7751 119.377 47.9461C119.399 48.1171 119.438 48.3231 119.618 48.4327C119.798 48.5424 120.065 48.6564 120.065 48.6564L120.275 48.1653Z" stroke="#263238" stroke-width="0.438458" stroke-miterlimit="10" stroke-linecap="round" stroke-linejoin="round"/>
<path d="M120.013 50.5325C120.013 50.5325 120.136 49.9449 119.886 50.0019C119.64 50.0546 119.092 50.1423 119.114 50.3132C119.136 50.4842 119.175 50.6903 119.355 50.7999C119.535 50.9096 119.802 51.0235 119.802 51.0235L120.013 50.5325Z" stroke="#263238" stroke-width="0.438458" stroke-miterlimit="10" stroke-linecap="round" stroke-linejoin="round"/>
<path d="M64.2794 46.7761C64.2794 46.7761 62.4072 48.1792 54.686 50.9897C46.9647 53.7958 44.6234 56.1372 44.391 58.0094C44.1586 59.8816 43.9218 61.2847 43.2203 63.6261C42.5188 65.9674 39.945 66.4322 41.8172 68.5412C43.6895 70.6458 46.2632 72.9872 49.0693 72.9872C51.8755 72.9872 55.8567 73.4563 56.3214 70.6458C56.7906 67.8397 56.089 63.8585 57.2553 62.4554C58.426 61.0523 58.8952 62.223 61.4689 60.3508C64.0427 58.4786 66.8488 57.3079 66.8488 57.3079L69.1902 54.9665L72.9346 56.1372L71.2948 51.9236C71.2948 51.9236 71.7639 51.9236 72.4655 50.2838C73.167 48.644 73.6361 47.4777 71.9963 46.307C70.3565 45.1363 70.3565 44.6671 68.9534 44.4348C67.5547 44.2024 64.2794 46.7761 64.2794 46.7761Z" stroke="#263238" stroke-width="0.438458" stroke-miterlimit="10" stroke-linecap="round" stroke-linejoin="round"/>
<path d="M64.2804 50.2881C63.8112 50.9896 61.2375 52.6295 61.2375 52.6295C61.2375 52.6295 59.1329 54.734 57.9622 55.4356C56.7915 56.1371 53.5162 56.8386 51.8808 59.18C50.241 61.5214 48.8379 65.4982 48.8379 65.4982" stroke="#263238" stroke-width="0.438458" stroke-miterlimit="10" stroke-linecap="round" stroke-linejoin="round"/>
<path d="M51.6436 67.3664C51.6436 67.3664 53.0466 63.3896 53.7481 62.2189C54.4497 61.0482 57.9617 59.176 57.9617 59.176L60.5355 56.8346L65.683 52.3887" stroke="#263238" stroke-width="0.438458" stroke-miterlimit="10" stroke-linecap="round" stroke-linejoin="round"/>
<path d="M64.8199 20.0111C64.8199 20.0111 65.0435 20.6556 60.1459 21.7298C55.2484 22.804 49.2371 22.1595 48.347 24.3036C47.457 26.4476 49.2371 28.8109 45.006 30.5253C40.7748 32.244 37.881 32.8842 37.4382 34.6029C36.991 36.3217 39.8892 38.2509 40.7792 40.6098C41.6693 42.9687 40.7792 46.6167 44.1203 48.1206C47.4613 49.6245 49.2415 45.9765 52.3589 44.9023C55.4763 43.8281 56.3664 44.6875 60.1503 42.7583C63.9342 40.829 65.2715 39.1103 66.828 37.6064C68.3845 36.1025 69.4982 35.8876 70.6119 36.1025C71.7256 36.3173 75.0667 35.4579 75.0667 35.4579L78.6795 38.3035C79.061 38.6061 79.6266 38.2685 79.5082 37.8037C79.2276 36.6944 79.0128 35.3001 79.5214 34.8134C80.4115 33.954 81.9724 33.5243 82.4152 32.4545C82.8624 31.3803 81.3015 29.6659 79.9642 26.0135C78.8769 23.0452 79.0478 17.9985 75.0272 16.8322C71.9273 15.9334 66.7886 17.6785 64.8199 20.0111Z" stroke="#263238" stroke-width="0.438458" stroke-miterlimit="10" stroke-linecap="round" stroke-linejoin="round"/>
<path d="M46.3467 36.2265C46.3467 36.2265 48.8985 35.8318 50.1744 34.0517C51.4503 32.2716 50.8146 30.6931 52.5158 29.8995C54.217 29.1059 57.1941 29.5049 58.6849 28.913C60.1756 28.3211 62.9379 27.3301 62.9379 27.3301L65.9151 24.9581L67.4058 24.5635" stroke="#263238" stroke-width="0.438458" stroke-miterlimit="10" stroke-linecap="round" stroke-linejoin="round"/>
<path d="M47.4121 39.5844C47.4121 39.5844 51.6652 37.4096 52.5158 35.8312C53.3664 34.2483 55.4929 32.4726 57.6194 32.2753C59.7459 32.078 63.7885 30.8898 64.6391 29.9032C65.4897 28.9167 66.7656 27.9258 67.8311 27.9258" stroke="#263238" stroke-width="0.438458" stroke-miterlimit="10" stroke-linecap="round" stroke-linejoin="round"/>
<path d="M48.4785 42.7451C48.4785 42.7451 53.797 40.1758 54.4328 38.9919C55.0685 37.8081 56.5593 34.6424 59.7513 34.2478C62.9432 33.8532 65.9204 33.6559 67.8321 32.4677C69.7481 31.2838 71.6598 30.4902 71.6598 30.4902" stroke="#263238" stroke-width="0.438458" stroke-miterlimit="10" stroke-linecap="round" stroke-linejoin="round"/>
<path d="M23.5685 50.5199L28.2469 52.8612L29.8867 49.5859L34.5651 54.2643L35.2666 50.989L40.1817 58.9426L35.0342 56.1365L33.8635 58.7102L29.8867 55.435L28.4793 57.3072L21.9287 53.7951L23.5685 50.5199Z" stroke="#263238" stroke-width="0.438458" stroke-miterlimit="10" stroke-linecap="round" stroke-linejoin="round"/>
<path d="M86.7424 4.89355L84.8702 9.33952L82.7656 8.16884L82.2964 12.8516L79.7227 12.3824L82.064 18.4638L83.9319 15.4253L86.0408 15.6577L87.4439 11.4485L89.3161 12.15L92.1222 7.00254L86.7424 4.89355Z" stroke="#263238" stroke-width="0.438458" stroke-miterlimit="10" stroke-linecap="round" stroke-linejoin="round"/>
<path d="M130.446 59.9285C130.446 59.9285 131.165 55.5044 134.213 55.1887C137.26 54.873 140.847 58.8236 139.948 61.0334C139.053 63.2432 136.541 65.1417 136.541 65.1417L135.822 68.1408H132.775C132.775 68.1408 132.595 64.6638 133.669 64.0324C134.743 63.4011 137.256 62.6118 136.716 60.2398C136.177 57.8721 134.743 57.0829 133.669 58.3456C132.595 59.6084 132.95 61.3447 131.336 61.5025C129.727 61.6648 130.446 59.9285 130.446 59.9285Z" stroke="#263238" stroke-width="0.438458" stroke-miterlimit="10" stroke-linecap="round" stroke-linejoin="round"/>
<path d="M134.747 69.4078C134.747 69.4078 132.239 69.0921 132.239 70.5127C132.239 71.9333 132.958 74.1475 133.493 74.1475C134.033 74.1475 135.646 74.3054 136.001 73.0426C136.361 71.7799 136.181 71.4642 136.181 70.675C136.181 69.8814 134.747 69.4078 134.747 69.4078Z" stroke="#263238" stroke-width="0.438458" stroke-miterlimit="10" stroke-linecap="round" stroke-linejoin="round"/>
<path d="M23.6611 29.4695C23.6611 29.4695 24.3802 25.0454 27.4275 24.7298C30.4748 24.4141 34.0614 28.3646 33.1625 30.5744C32.2681 32.7842 29.7557 34.6827 29.7557 34.6827L29.0366 37.6818H25.9893C25.9893 37.6818 25.8096 34.2048 26.8838 33.5735C27.958 32.9421 30.4704 32.1528 29.9311 29.7808C29.3918 27.4131 27.958 26.6239 26.8838 27.8866C25.8096 29.1494 26.1647 30.8857 24.5512 31.0435C22.9421 31.2058 23.6611 29.4695 23.6611 29.4695Z" stroke="#263238" stroke-width="0.438458" stroke-miterlimit="10" stroke-linecap="round" stroke-linejoin="round"/>
<path d="M27.9621 38.9449C27.9621 38.9449 25.4541 38.6292 25.4541 40.0498C25.4541 41.4704 26.1732 43.6847 26.7081 43.6847C27.2474 43.6847 28.8609 43.8425 29.2161 42.5797C29.5756 41.317 29.3958 41.0013 29.3958 40.2121C29.3958 39.4185 27.9621 38.9449 27.9621 38.9449Z" stroke="#263238" stroke-width="0.438458" stroke-miterlimit="10" stroke-linecap="round" stroke-linejoin="round"/>
<path d="M36.0732 78.5935C36.0732 78.5935 36.7923 74.1695 39.8396 73.8538C42.8869 73.5381 46.4735 77.4886 45.5746 79.6984C44.6802 81.9082 42.1678 83.8068 42.1678 83.8068L41.4487 86.8058H38.4015C38.4015 86.8058 38.2217 83.3289 39.2959 82.6975C40.3701 82.0661 42.8825 81.2769 42.3432 78.9048C41.8039 76.5371 40.3701 75.7479 39.2959 77.0107C38.2217 78.2734 38.5768 80.0097 36.9633 80.1676C35.3542 80.3298 36.0732 78.5935 36.0732 78.5935Z" stroke="#263238" stroke-width="0.438458" stroke-miterlimit="10" stroke-linecap="round" stroke-linejoin="round"/>
<path d="M40.3742 88.0729C40.3742 88.0729 37.8662 87.7572 37.8662 89.1778C37.8662 90.5984 38.5853 92.8126 39.1202 92.8126C39.6595 92.8126 41.273 92.9704 41.6282 91.7077C41.9877 90.4449 41.808 90.1292 41.808 89.34C41.808 88.5464 40.3742 88.0729 40.3742 88.0729Z" stroke="#263238" stroke-width="0.438458" stroke-miterlimit="10" stroke-linecap="round" stroke-linejoin="round"/>
<path d="M117.161 10.2512C117.161 10.2512 117.617 7.4451 119.551 7.24779C121.484 7.0461 123.76 9.55408 123.19 10.9528C122.62 12.3558 121.028 13.5572 121.028 13.5572L120.572 15.4601H118.639C118.639 15.4601 118.525 13.2547 119.209 12.8557C119.893 12.4567 121.484 11.9524 121.142 10.4529C120.8 8.94901 119.893 8.44917 119.209 9.25155C118.525 10.0539 118.753 11.1545 117.731 11.2553C116.709 11.3518 117.161 10.2512 117.161 10.2512Z" stroke="#263238" stroke-width="0.438458" stroke-miterlimit="10" stroke-linecap="round" stroke-linejoin="round"/>
<path d="M119.892 16.2624C119.892 16.2624 118.301 16.0607 118.301 16.9639C118.301 17.8671 118.757 19.2702 119.099 19.2702C119.441 19.2702 120.462 19.3711 120.69 18.5687C120.918 17.7663 120.804 17.569 120.804 17.0648C120.8 16.5605 119.892 16.2624 119.892 16.2624Z" stroke="#263238" stroke-width="0.438458" stroke-miterlimit="10" stroke-linecap="round" stroke-linejoin="round"/>
<path d="M84.4809 36.7874C84.4809 36.7874 84.9369 33.9812 86.8705 33.7839C88.8041 33.5822 91.0797 36.0902 90.5097 37.4889C89.9397 38.892 88.3481 40.0933 88.3481 40.0933L87.8921 41.9962H85.9585C85.9585 41.9962 85.8445 39.7908 86.5285 39.3918C87.2125 38.9928 88.8041 38.4886 88.4621 36.9891C88.1201 35.4851 87.2125 34.9853 86.5285 35.7877C85.8445 36.5901 86.0725 37.6906 85.0509 37.7914C84.0249 37.8923 84.4809 36.7874 84.4809 36.7874Z" stroke="#263238" stroke-width="0.438458" stroke-miterlimit="10" stroke-linecap="round" stroke-linejoin="round"/>
<path d="M87.2127 42.7985C87.2127 42.7985 85.6211 42.5968 85.6211 43.5001C85.6211 44.4033 86.0771 45.8063 86.4191 45.8063C86.7611 45.8063 87.7827 45.9072 88.0107 45.1048C88.2387 44.3024 88.1247 44.1051 88.1247 43.6009C88.1203 43.1011 87.2127 42.7985 87.2127 42.7985Z" stroke="#263238" stroke-width="0.438458" stroke-miterlimit="10" stroke-linecap="round" stroke-linejoin="round"/>
<path d="M137.948 20.178C137.948 20.178 138.404 17.3719 140.338 17.1746C142.271 16.9729 144.547 19.4808 143.977 20.8795C143.407 22.2826 141.815 23.484 141.815 23.484L141.359 25.3869H139.426C139.426 25.3869 139.312 23.1814 139.996 22.7824C140.68 22.3834 142.271 21.8792 141.929 20.3797C141.587 18.8758 140.68 18.3759 139.996 19.1783C139.312 19.9807 139.54 21.0812 138.518 21.1821C137.496 21.2829 137.948 20.178 137.948 20.178Z" stroke="#263238" stroke-width="0.438458" stroke-miterlimit="10" stroke-linecap="round" stroke-linejoin="round"/>
<path d="M140.679 26.1891C140.679 26.1891 139.088 25.9875 139.088 26.8907C139.088 27.7939 139.544 29.197 139.886 29.197C140.228 29.197 141.249 29.2978 141.477 28.4954C141.705 27.6931 141.591 27.4958 141.591 26.9915C141.587 26.4917 140.679 26.1891 140.679 26.1891Z" stroke="#263238" stroke-width="0.438458" stroke-miterlimit="10" stroke-linecap="round" stroke-linejoin="round"/>
<path d="M134.433 28.8438C145.46 37.9374 141.571 52.1478 128.86 54.2655C114.82 56.6069 116.013 43.1331 101.952 42.5675C87.8948 42.0019 94.2305 46.5443 102.184 48.8857C110.138 51.227 107.564 56.3745 95.1644 50.9903C82.7648 45.6104 78.3188 42.3351 70.83 42.7999C63.3411 43.269 39.7126 52.3933 40.1774 58.9439C40.6465 65.4945 37.3712 71.5803 41.1113 74.8555C44.8557 78.1308 56.3214 84.6814 59.1275 75.3247C61.2146 68.3664 66.6602 63.2232 70.1854 60.8468" stroke="#263238" stroke-width="0.438458" stroke-linecap="round" stroke-linejoin="round"/>
<path d="M72.9337 59.4131L69.9566 63.0654L70.0136 61.0047L68.251 59.9349L72.9337 59.4131Z" fill="#263238"/>
<path d="M63.8232 15.7014C66.3444 14.6184 68.5586 13.7458 70.1283 13.3161C77.8495 11.2115 81.8263 18.9328 85.1016 25.9525C88.3769 32.9722 96.5673 39.7552 104.052 35.7784C111.541 31.8015 114.816 17.5297 130.491 26.1849C130.986 26.4567 131.46 26.7373 131.916 27.0267" stroke="#263238" stroke-width="0.438458" stroke-linecap="round" stroke-linejoin="round"/>
<path d="M134.432 28.8421L129.833 27.8029L131.705 26.9348L131.876 24.8828L134.432 28.8421Z" fill="#263238"/>
<path d="M66.3839 12.1494C66.3839 12.1494 42.751 19.8707 40.8788 24.0842C39.5239 27.1315 51.393 21.2386 60.9864 16.9505" stroke="#263238" stroke-width="0.438458" stroke-linecap="round" stroke-linejoin="round"/>
<path d="M63.8233 15.7012L60.5743 19.1124L60.7892 17.0648L59.1143 15.859L63.8233 15.7012Z" fill="#263238"/>
<path d="M16.4834 56.868C20.4865 58.7227 28.484 58.1834 34.0963 61.5157C41.5851 65.9616 31.7549 71.5783 33.8639 76.2566C35.9685 80.935 48.8372 83.5087 55.1554 81.8733C61.4736 80.2334 65.4504 75.3227 68.7257 68.303C72.001 61.2833 77.6176 55.2019 80.1913 54.5003C82.7651 53.7988 109.906 60.117 114.352 61.7524C118.798 63.3923 119.499 65.966 124.647 69.2413C129.794 72.5166 129.093 67.3691 127.922 64.3262C126.751 61.2833 121.371 61.52 116.693 57.0741C112.015 52.6281 107.569 47.9498 108.972 51.6942C110.375 55.4386 112.949 59.1831 106.398 57.3108C99.8474 55.4386 89.4034 50.5937 88.2371 50.5937C88.2371 50.5937 80.3448 46.4678 77.6527 48.0813C74.9605 49.6948 77.8324 50.0544 86.4438 52.7465C89.0263 53.5533 90.8327 54.1189 92.0999 54.5135" stroke="#263238" stroke-width="0.438458" stroke-linecap="round" stroke-linejoin="round"/>
<path d="M95.046 55.4351L90.3545 55.8341L91.8716 54.4398L91.4156 52.4316L95.046 55.4351Z" fill="#263238"/>
<path d="M60.4916 4.64355C46.2855 8.88344 38.4591 14.9122 39.9454 14.7237C41.8177 14.4913 51.8803 11.4484 60.7678 8.17314C69.6597 4.89786 77.6134 7.00246 69.1906 8.64229C60.7678 10.2821 42.2824 17.2975 38.538 19.6388C34.7936 21.9802 39.2395 25.4879 39.4719 28.0616C39.7043 30.6353 35.9642 31.806 34.092 34.3798C32.2198 36.9535 36.6658 47.0161 34.3244 47.9501C32.0225 48.8708 15.2252 48.884 12.6777 53.3431" stroke="#263238" stroke-width="0.438458" stroke-linecap="round" stroke-linejoin="round"/>
<path d="M13.993 56.1539L11.1123 52.4227L13.1073 52.9488L14.5498 51.4756L13.993 56.1539Z" fill="#263238"/>
<path d="M103.938 13.9083C101.062 13.4435 97.8785 12.4044 94.9276 10.975C87.6755 7.46731 108.498 9.10276 110.138 7.93208C111.778 6.7614 94.4629 -1.66138 72.7022 1.85067C69.4181 2.3812 66.3314 3.04766 63.4727 3.80181" stroke="#263238" stroke-width="0.438458" stroke-linecap="round" stroke-linejoin="round"/>
<path d="M60.4912 4.64492L64.2532 1.80371L63.7095 3.79431L65.1652 5.24999L60.4912 4.64492Z" fill="#263238"/>
<path d="M135.173 14.9551C135.173 14.9551 134.471 10.2768 126.281 7.0015C118.091 3.72622 115.052 7.70303 112.943 11.6798C112.014 13.4337 109.813 14.1878 107.02 14.1791" stroke="#263238" stroke-width="0.438458" stroke-linecap="round" stroke-linejoin="round"/>
<path d="M103.937 13.9073L108.418 12.4473L107.256 14.1529L108.159 16.0032L103.937 13.9073Z" fill="#263238"/>
<path d="M151.284 48.5254C150.381 52.9538 148.583 55.567 146.641 56.6018C143.133 58.474 141.261 60.1095 142.896 61.9817C144.536 63.8539 147.11 62.2141 147.342 65.4893C147.575 68.7646 145.939 75.0828 138.919 77.8889C133.246 80.1601 129.102 79.6778 125.989 76.9375" stroke="#263238" stroke-width="0.438458" stroke-linecap="round" stroke-linejoin="round"/>
<path d="M123.946 74.6221L128.204 76.639L126.187 77.0774L125.573 79.0417L123.946 74.6221Z" fill="#263238"/>
<path d="M129.325 17.0617C129.325 17.0617 134.472 21.2753 133.069 17.7633C131.666 14.2556 128.856 11.6819 126.282 14.488C123.708 17.2941 126.751 21.0386 130.728 21.7401C134.705 22.4416 141.492 21.7401 145.469 34.1397C149.446 46.5393 140.554 47.4776 139.852 50.7529C139.151 54.0281 148.275 52.3927 148.744 44.4347C149.213 36.4811 143.829 29.4613 144.066 25.9493C144.298 22.4416 149.446 20.5694 151.318 34.1397C151.936 38.6076 152.019 42.3652 151.726 45.4607" stroke="#263238" stroke-width="0.438458" stroke-linecap="round" stroke-linejoin="round"/>
<path d="M151.282 48.5243L150.106 43.96L151.733 45.2315L153.64 44.4466L151.282 48.5243Z" fill="#263238"/>
<path d="M1.04004 133.652C1.04004 133.652 12.2251 131.298 13.1064 129.237C13.9877 127.176 12.5189 120.994 16.6404 119.819C20.7619 118.64 28.1192 121.292 29.8862 120.7C31.6532 120.113 34.889 113.049 36.656 112.164C37.397 111.795 39.484 111.734 41.6544 111.791" stroke="#263238" stroke-width="0.876916" stroke-linecap="round" stroke-linejoin="round"/>
<path d="M47.8377 112.168L38.9414 115.286L41.1907 111.831L39.3053 108.165L47.8377 112.168Z" fill="#263238"/>
<path d="M13.1064 156.61C13.1064 156.61 21.6432 155.729 22.8183 153.375C23.9977 151.02 21.6388 147.486 24.879 143.663C28.1149 139.835 31.3551 144.25 34.5909 142.781C37.8267 141.308 40.1812 138.072 41.0669 137.485C41.9482 136.897 43.1277 137.779 44.3027 136.897C45.1446 136.266 47.0299 133.99 48.3672 132.307" stroke="#263238" stroke-width="0.876916" stroke-linecap="round" stroke-linejoin="round"/>
<path d="M53.133 128.356L48.8449 136.753L48.0908 132.697L44.1973 131.347L53.133 128.356Z" fill="#263238"/>
<path d="M171.159 141.307C171.159 141.307 162.622 141.013 160.267 139.54C157.913 138.067 157.032 134.243 154.971 133.358C152.91 132.476 145.553 131.297 145.553 131.297C145.553 131.297 143.786 131.003 141.138 128.355C138.858 126.075 140.068 126.413 139.134 125.987" stroke="#263238" stroke-width="0.876916" stroke-linecap="round" stroke-linejoin="round"/>
<path d="M133.188 124.233L142.607 123.878L139.441 126.517L140.16 130.578L133.188 124.233Z" fill="#263238"/>
<path d="M179.397 118.645C179.397 118.645 174.982 119.232 172.334 119.232C169.685 119.232 162.622 117.465 162.622 117.465L157.325 115.404C157.325 115.404 151.735 115.992 149.968 115.992C148.933 115.992 146.982 116.093 145.553 116.176" stroke="#263238" stroke-width="0.876916" stroke-linecap="round" stroke-linejoin="round"/>
<path d="M139.37 116.584L147.85 112.467L146.008 116.159L148.306 119.583L139.37 116.584Z" fill="#263238"/>
<path d="M153.204 173.09C153.204 173.09 149.083 166.908 146.728 165.439C144.374 163.966 139.665 159.849 139.665 159.849L138.485 152.785L136.508 150.242" stroke="#263238" stroke-width="0.876916" stroke-linecap="round" stroke-linejoin="round"/>
<path d="M133.483 144.836L140.95 150.589H136.829L134.786 154.171L133.483 144.836Z" fill="#263238"/>
<path d="M37.2393 167.795C37.2393 167.795 39.5938 162.793 40.7732 160.732C41.9527 158.671 42.2465 157.496 43.7153 154.55C44.4431 153.094 45.605 151.783 46.5916 150.827" stroke="#263238" stroke-width="0.876916" stroke-linecap="round" stroke-linejoin="round"/>
<path d="M50.4851 146.018L47.6789 155.015L46.2452 151.148L42.1807 150.472L50.4851 146.018Z" fill="#263238"/>
<path d="M60.7017 192.597C60.7017 192.597 59.9037 196.161 60.7763 196.889C61.6488 197.617 67.3224 200.015 84.852 200.888C102.382 201.761 117.294 197.253 118.385 196.087C119.477 194.925 118.53 189.615 118.53 189.615C118.53 189.615 109.73 194.78 99.6894 195.942C89.6531 197.104 74.9604 195.723 69.2867 194.123C63.6131 192.522 61.0657 191.794 61.0657 191.794L60.7017 192.597Z" fill="#6747C7" stroke="#263238" stroke-width="0.438458" stroke-miterlimit="10" stroke-linecap="round" stroke-linejoin="round"/>
<path d="M84.8966 118.817C84.8966 118.817 70.866 119.089 69.7786 120.045C68.6868 120.996 64.0567 174.396 62.8334 179.57C61.6058 184.748 58.3392 191.285 59.5625 193.057C60.7902 194.828 80.5384 198.507 92.118 198.507C103.698 198.507 115.545 193.877 117.864 191.285C120.179 188.698 118.956 185.292 118.544 183.656C118.132 182.021 115.957 170.853 116.093 170.445C116.229 170.038 120.179 156.551 120.179 156.551C120.179 156.551 129.988 134.483 128.624 132.168C127.26 129.853 113.506 122.36 113.506 122.36L88.4438 118.409L84.8966 118.817Z" fill="#6747C7" stroke="#263238" stroke-width="0.438458" stroke-miterlimit="10" stroke-linecap="round" stroke-linejoin="round"/>
<path d="M62.8291 179.569C62.8291 179.569 66.8936 178.763 70.2785 178.938C73.6634 179.113 76.0968 179.806 76.0968 179.806C76.0968 179.806 72.2779 175.29 70.1908 174.944C68.1081 174.597 63.6797 176.158 63.6797 176.158L62.8291 179.569Z" fill="#263238" stroke="#263238" stroke-width="0.438458" stroke-miterlimit="10" stroke-linecap="round" stroke-linejoin="round"/>
<path d="M96.3611 126.56C103.069 126.56 108.506 122.658 108.506 117.844C108.506 113.029 103.069 109.127 96.3611 109.127C89.6534 109.127 84.2158 113.029 84.2158 117.844C84.2158 122.658 89.6534 126.56 96.3611 126.56Z" fill="#263238" stroke="#263238" stroke-width="0.438458" stroke-miterlimit="10" stroke-linecap="round" stroke-linejoin="round"/>
<path d="M92.8535 148.523C93.52 148.049 94.1601 147.655 94.752 147.374" stroke="#263238" stroke-width="0.438458" stroke-miterlimit="10" stroke-linecap="round" stroke-linejoin="round"/>
<path d="M82.2764 159.102C82.2764 159.102 87.0599 153.24 91.4051 149.645" stroke="#263238" stroke-width="0.438458" stroke-miterlimit="10" stroke-linecap="round" stroke-linejoin="round"/>
<path d="M87.89 148.996C87.89 148.996 83.9001 154.109 82.9004 155.981" stroke="#263238" stroke-width="0.438458" stroke-miterlimit="10" stroke-linecap="round" stroke-linejoin="round"/>
<path d="M89.0342 133.904C89.2841 134.238 89.5252 134.531 89.762 134.772" stroke="#263238" stroke-width="0.438458" stroke-miterlimit="10" stroke-linecap="round" stroke-linejoin="round"/>
<path d="M83.5225 123.798C83.5225 123.798 86.162 129.691 88.4858 133.133" stroke="#263238" stroke-width="0.438458" stroke-miterlimit="10" stroke-linecap="round" stroke-linejoin="round"/>
<path d="M82.1504 123.298C82.1504 123.298 84.5225 130.905 85.5178 132.405" stroke="#263238" stroke-width="0.438458" stroke-miterlimit="10" stroke-linecap="round" stroke-linejoin="round"/>
<path d="M78.3535 147.075C78.4719 147.812 78.599 148.443 78.7262 148.917" stroke="#263238" stroke-width="0.438458" stroke-miterlimit="10" stroke-linecap="round" stroke-linejoin="round"/>
<path d="M76.8701 131.423C76.8701 131.423 77.4357 140.731 78.2074 146.129" stroke="#263238" stroke-width="0.438458" stroke-miterlimit="10" stroke-linecap="round" stroke-linejoin="round"/>
<path d="M69.1318 192.215C71.2627 193.785 75.2659 196.393 79.6461 197.52" stroke="#263238" stroke-width="0.438458" stroke-miterlimit="10" stroke-linecap="round" stroke-linejoin="round"/>
<path d="M67.5225 190.947C67.5225 190.947 67.8732 191.25 68.4958 191.732" stroke="#263238" stroke-width="0.438458" stroke-miterlimit="10" stroke-linecap="round" stroke-linejoin="round"/>
<path d="M59.5144 170.187C59.5144 170.187 58.4446 173.199 58.0412 174.067C57.6378 174.935 57.9053 176.01 58.4446 176.474C58.9795 176.944 60.0494 178.079 61.1236 178.281C62.1934 178.483 62.531 178.215 62.6626 177.746C62.7985 177.277 62.7985 177.277 62.7985 177.277C62.7985 177.277 64.9382 178.215 66.4114 178.079C67.8846 177.943 69.2877 177.009 69.2877 177.009L71.4975 177.277L73.7731 171.187C73.7731 171.187 70.4277 170.117 69.1561 169.713C67.8846 169.31 62.531 167.907 61.0578 168.24C59.5802 168.578 59.5144 170.187 59.5144 170.187Z" fill="#EBC0BB" stroke="#263238" stroke-width="0.438458" stroke-miterlimit="10" stroke-linecap="round" stroke-linejoin="round"/>
<path d="M62.795 177.281L60.252 176.676" stroke="#263238" stroke-width="0.438458" stroke-miterlimit="10" stroke-linecap="round" stroke-linejoin="round"/>
<path d="M73.2925 171.326C73.2925 171.326 70.6749 174.693 70.5477 176.316C70.425 177.938 71.7973 178.061 72.9198 178.438C74.0422 178.81 79.0933 170.953 78.725 170.861C78.3523 170.765 74.7131 169.848 73.2925 171.326Z" fill="#263238" stroke="#263238" stroke-width="0.438458" stroke-miterlimit="10" stroke-linecap="round" stroke-linejoin="round"/>
<path d="M113.709 137.895C113.709 137.895 104.103 156.231 102.358 160.721C100.613 165.211 100.236 166.583 100.236 166.583L99.613 170.328C99.613 170.328 78.6547 170.205 77.1596 170.7C75.6645 171.2 70.2977 176.313 72.9197 178.435C75.5417 180.557 83.8987 182.425 92.7555 184.797C101.612 187.169 108.097 187.914 109.597 185.297C111.092 182.679 124.316 157.604 126.811 149.12C129.305 140.635 134.795 134.773 131.677 129.911C128.56 125.044 116.709 124.671 115.086 124.921" fill="#6747C7"/>
<path d="M113.709 137.895C113.709 137.895 104.103 156.231 102.358 160.721C100.613 165.211 100.236 166.583 100.236 166.583L99.613 170.328C99.613 170.328 78.6547 170.205 77.1596 170.7C75.6645 171.2 70.2977 176.313 72.9197 178.435C75.5417 180.557 83.8987 182.425 92.7555 184.797C101.612 187.169 108.097 187.914 109.597 185.297C111.092 182.679 124.316 157.604 126.811 149.12C129.305 140.635 134.795 134.773 131.677 129.911C128.56 125.044 116.709 124.671 115.086 124.921" stroke="#263238" stroke-width="0.438458" stroke-miterlimit="10" stroke-linecap="round" stroke-linejoin="round"/>
<path d="M125.257 146.752C122.28 149.181 117.163 153.101 113.511 154.596" stroke="#263238" stroke-width="0.438458" stroke-miterlimit="10" stroke-linecap="round" stroke-linejoin="round"/>
<path d="M127.845 144.562C127.845 144.562 127.262 145.062 126.311 145.843" stroke="#263238" stroke-width="0.438458" stroke-miterlimit="10" stroke-linecap="round" stroke-linejoin="round"/>
<path d="M118.594 153.035C118.594 153.035 114.683 154.991 111.947 156.03" stroke="#263238" stroke-width="0.438458" stroke-miterlimit="10" stroke-linecap="round" stroke-linejoin="round"/>
<path d="M99.2451 181C99.517 181.421 99.8063 181.785 100.109 182.065" stroke="#263238" stroke-width="0.438458" stroke-miterlimit="10" stroke-linecap="round" stroke-linejoin="round"/>
<path d="M96.127 172.156C96.127 172.156 96.9776 176.317 98.3894 179.4" stroke="#263238" stroke-width="0.438458" stroke-miterlimit="10" stroke-linecap="round" stroke-linejoin="round"/>
<path d="M93.0713 173.822C93.0713 173.822 93.1634 178.544 93.6281 179.654" stroke="#263238" stroke-width="0.438458" stroke-miterlimit="10" stroke-linecap="round" stroke-linejoin="round"/>
<path d="M101.232 172.771L113.614 177.883L115.053 175.884L101.232 172.771Z" fill="#263238" stroke="#263238" stroke-width="0.438458" stroke-miterlimit="10" stroke-linecap="round" stroke-linejoin="round"/>
<path d="M99.4973 164.198C99.4973 164.198 106.806 163.286 107.718 162.37C108.63 161.458 111.371 158.968 112.204 158.801C113.032 158.634 116.935 159.546 117.851 159.546C118.763 159.546 120.092 157.885 121.091 157.968C122.087 158.051 122.586 159.296 122.253 160.292C121.92 161.287 120.013 162.366 119.596 162.449C119.18 162.532 118.518 162.782 118.518 162.782C118.518 162.782 122.003 163.449 123.086 163.861C124.165 164.277 124.165 165.273 123.748 166.268C123.332 167.263 122.92 167.846 122.42 168.18C121.92 168.513 120.841 169.925 120.841 169.925C120.841 169.925 121.258 171.336 120.592 172.248C119.925 173.16 119.43 173.66 119.096 173.91C118.763 174.16 119.491 174.296 118.768 175.164C118.259 175.769 118.193 176.01 115.773 176.401C114.997 176.528 111.787 175.901 109.547 175.155C107.306 174.41 103.404 173.494 103.404 173.494L98.0898 172.248L99.4973 164.198Z" fill="#EBC0BB" stroke="#263238" stroke-width="0.438458" stroke-miterlimit="10" stroke-linecap="round" stroke-linejoin="round"/>
<path d="M121.415 166.088C121.415 166.088 121.494 167.934 121.016 168.574C120.534 169.214 119.815 169.617 119.815 169.617C119.815 169.617 120.056 170.578 119.653 171.463C119.254 172.345 119.254 172.345 119.254 172.345C119.254 172.345 118.6 173.13 118.842 173.656" stroke="#263238" stroke-width="0.438458" stroke-miterlimit="10" stroke-linecap="round" stroke-linejoin="round"/>
<path d="M94.4316 163.225L99.6054 164.04L98.1059 172.213L94.9753 171.533L94.4316 163.225Z" fill="#263238" stroke="#263238" stroke-width="0.438458" stroke-miterlimit="10" stroke-linecap="round" stroke-linejoin="round"/>
<path d="M76.3149 119.91C76.3149 119.91 69.5056 116.639 65.1474 118.274C60.7891 119.91 60.5172 129.17 60.3813 130.398C60.2454 131.625 55.4794 162.545 54.9313 167.583C54.3876 172.621 80.2654 175.077 86.1232 174.941C91.981 174.805 94.5679 173.033 94.9757 171.534C95.3834 170.034 97.4267 163.769 96.0674 162.953C94.7038 162.138 70.3212 156.959 70.3212 156.959L68.9576 155.324C68.9576 155.324 71.9522 137.343 72.5003 134.484" fill="#6747C7"/>
<path d="M76.3149 119.91C76.3149 119.91 69.5056 116.639 65.1474 118.274C60.7891 119.91 60.5172 129.17 60.3813 130.398C60.2454 131.625 55.4794 162.545 54.9313 167.583C54.3876 172.621 80.2654 175.077 86.1232 174.941C91.981 174.805 94.5679 173.033 94.9757 171.534C95.3834 170.034 97.4266 163.769 96.0674 162.953C94.7038 162.138 70.3212 156.959 70.3212 156.959L68.9576 155.324C68.9576 155.324 71.9522 137.343 72.5003 134.484" stroke="#263238" stroke-width="0.438458" stroke-miterlimit="10" stroke-linecap="round" stroke-linejoin="round"/>
<path d="M62.1268 157.74C61.7936 157.867 61.4823 158.016 61.1973 158.183" stroke="#263238" stroke-width="0.438458" stroke-miterlimit="10" stroke-linecap="round" stroke-linejoin="round"/>
<path d="M70.3209 156.959C70.3209 156.959 66.708 156.639 63.6738 157.292" stroke="#263238" stroke-width="0.438458" stroke-miterlimit="10" stroke-linecap="round" stroke-linejoin="round"/>
<path d="M60.377 154.372C60.377 154.372 64.8711 153.829 67.5984 155.052" stroke="#263238" stroke-width="0.438458" stroke-miterlimit="10" stroke-linecap="round" stroke-linejoin="round"/>
<path d="M87.7041 121.572C87.7041 121.572 93.3032 124.711 97.5343 123.755C101.765 122.799 101.358 112.833 101.358 112.833L97.9465 110.514L87.7041 121.572Z" fill="#EBC0BB" stroke="#263238" stroke-width="0.438458" stroke-miterlimit="10" stroke-linecap="round" stroke-linejoin="round"/>
<path d="M97.8588 113.846L93.4216 115.398L87.7041 121.571C87.7041 121.571 89.1905 122.404 91.203 123.08L97.8588 113.846Z" fill="#263238" stroke="#263238" stroke-width="0.438458" stroke-miterlimit="10" stroke-linecap="round" stroke-linejoin="round"/>
<path d="M79.8107 78.813C79.8107 78.813 68.9808 88.4416 68.8712 96.3207C68.7616 104.2 73.7951 112.623 73.7951 112.623C73.7951 112.623 68.3232 121.813 68.2135 123.238C68.1039 124.658 71.4976 127.833 71.822 127.833C72.1509 127.833 75.4306 125.097 75.4306 125.097L73.5715 129.144L79.1531 132.099C79.1531 132.099 81.7707 122.141 83.2 118.967C83.2 118.967 77.1844 107.808 76.7459 103.432C76.3075 99.0566 76.5267 95.0097 77.7325 92.927C78.9338 90.8487 84.7346 87.8935 85.0635 87.6743C85.3923 87.455 92.833 93.5847 94.0343 98.7234C95.2357 103.867 99.309 112.965 99.309 112.965C99.309 112.965 97.4236 122.904 96.5511 125.531C95.6742 128.157 92.7233 131.112 92.7233 131.112C92.7233 131.112 97.0992 132.752 98.8486 133.081C100.598 133.41 101.037 133.41 101.037 133.41C101.037 133.41 103.663 129.034 103.882 128.705C104.101 128.376 104.101 133.081 104.101 133.081C104.101 133.081 108.696 132.752 113.511 130.126C118.325 127.499 121.17 124.215 121.17 124.215C121.17 124.215 124.126 122.904 125.546 118.524C126.967 114.148 123.906 109.663 120.294 105.392C116.685 101.126 115.37 99.8108 114.168 93.4663C112.967 87.1218 110.775 80.4441 104.869 76.3971C98.9582 72.3502 90.8643 72.2405 86.9269 74.4285C82.9808 76.6251 79.8107 78.813 79.8107 78.813Z" fill="#263238" stroke="#263238" stroke-width="0.438458" stroke-miterlimit="10" stroke-linecap="round" stroke-linejoin="round"/>
<path d="M85.1091 83.6172C85.1091 83.6172 76.7827 90.0318 75.5507 91.5357C74.323 93.0396 75.2788 96.3149 75.0026 100.546C74.7308 104.777 76.9143 109.285 78.142 111.604C79.3696 113.923 82.6493 121.162 85.1047 121.706C87.56 122.254 87.7003 121.57 87.7003 121.57C87.7003 121.57 96.7107 117.339 99.3063 112.968C99.3063 112.968 97.6665 103.409 96.851 99.7261C96.031 96.0387 95.6233 95.0829 95.6233 95.0829C95.6233 95.0829 91.1159 89.076 89.0683 87.1643C87.0163 85.2526 85.1091 83.6172 85.1091 83.6172Z" fill="#EBC0BB" stroke="#263238" stroke-width="0.438458" stroke-miterlimit="10" stroke-linecap="round" stroke-linejoin="round"/>
<path d="M78.7646 103.66C78.7646 103.66 79.6679 102.564 80.6588 103.107" stroke="#263238" stroke-width="0.438458" stroke-miterlimit="10" stroke-linecap="round" stroke-linejoin="round"/>
<path d="M81.7279 104.187C81.8813 104.879 81.6533 105.52 81.2192 105.616C80.7852 105.712 80.3072 105.23 80.1494 104.537C79.9959 103.845 80.2239 103.204 80.658 103.108C81.0965 103.012 81.5744 103.494 81.7279 104.187Z" fill="#263238"/>
<path d="M90.7112 104.095C90.8647 104.788 90.6367 105.428 90.2026 105.524C89.7686 105.621 89.2906 105.138 89.1328 104.446C88.9793 103.753 89.2073 103.113 89.6414 103.016C90.0799 102.92 90.5578 103.402 90.7112 104.095Z" fill="#263238"/>
<path d="M87.585 103.2C87.585 103.2 88.6767 102.516 90.0184 103.2" stroke="#263238" stroke-width="0.438458" stroke-miterlimit="10" stroke-linecap="round" stroke-linejoin="round"/>
<path d="M85.1094 83.6176C85.1094 83.6176 88.3803 92.5621 95.6236 95.0877C95.6236 95.0877 88.3189 90.5321 87.157 82.9336" fill="#263238"/>
<path d="M85.1094 83.6176C85.1094 83.6176 88.3803 92.5621 95.6236 95.0877C95.6236 95.0877 88.3189 90.5321 87.157 82.9336" stroke="#263238" stroke-width="0.438458" stroke-miterlimit="10" stroke-linecap="round" stroke-linejoin="round"/>
<path d="M85.2012 98.8713C85.2012 98.8713 84.6136 99.4544 85.7536 99.928C86.8936 100.406 90.6819 101.243 91.4799 100.673C92.2779 100.108 87.297 98.5249 85.2012 98.8713Z" fill="#263238" stroke="#263238" stroke-width="0.438458" stroke-miterlimit="10" stroke-linecap="round" stroke-linejoin="round"/>
<path d="M80.1534 98.832C80.1534 98.832 76.9527 100.218 76.1985 100.985C75.4488 101.757 79.7062 100.827 80.4603 100.055C81.2145 99.288 80.1534 98.832 80.1534 98.832Z" fill="#263238" stroke="#263238" stroke-width="0.438458" stroke-miterlimit="10" stroke-linecap="round" stroke-linejoin="round"/>
<path d="M81.2812 101.143C81.2812 101.143 82.3906 102.971 82.5572 103.8C82.7238 104.628 82.8071 105.952 82.8071 105.952" stroke="#263238" stroke-width="0.438458" stroke-miterlimit="10" stroke-linecap="round" stroke-linejoin="round"/>
<path d="M83.0524 110.995C83.0524 110.995 82.8858 112.153 83.3024 112.569C83.7145 112.981 84.7098 113.643 86.5294 112.736" stroke="#263238" stroke-width="0.438458" stroke-miterlimit="10" stroke-linecap="round" stroke-linejoin="round"/>
<path d="M84.626 115.796C84.626 115.796 85.2047 116.125 86.3623 115.796" stroke="#263238" stroke-width="0.438458" stroke-miterlimit="10" stroke-linecap="round" stroke-linejoin="round"/>
<path d="M84.8545 99.4021C84.8545 99.4021 83.9426 97.828 84.8545 96.5039" stroke="#263238" stroke-width="0.438458" stroke-miterlimit="10" stroke-linecap="round" stroke-linejoin="round"/>
</svg>
