<svg width="15" height="16" viewBox="0 0 15 16" fill="none" xmlns="http://www.w3.org/2000/svg">
<path d="M5 4.25C4.66848 4.25 4.35054 4.3817 4.11612 4.61612C3.8817 4.85054 3.75 5.16848 3.75 5.5V10.5C3.75 10.8315 3.8817 11.1495 4.11612 11.3839C4.35054 11.6183 4.66848 11.75 5 11.75H10C10.3315 11.75 10.6495 11.6183 10.8839 11.3839C11.1183 11.1495 11.25 10.8315 11.25 10.5V9.25C11.25 9.08424 11.3158 8.92527 11.4331 8.80806C11.5503 8.69085 11.7092 8.625 11.875 8.625C12.0408 8.625 12.1997 8.69085 12.3169 8.80806C12.4342 8.92527 12.5 9.08424 12.5 9.25V10.5C12.5 11.163 12.2366 11.7989 11.7678 12.2678C11.2989 12.7366 10.663 13 10 13H5C4.33696 13 3.70107 12.7366 3.23223 12.2678C2.76339 11.7989 2.5 11.163 2.5 10.5V5.5C2.5 4.83696 2.76339 4.20107 3.23223 3.73223C3.70107 3.26339 4.33696 3 5 3H6.25C6.41576 3 6.57473 3.06585 6.69194 3.18306C6.80915 3.30027 6.875 3.45924 6.875 3.625C6.875 3.79076 6.80915 3.94973 6.69194 4.06694C6.57473 4.18415 6.41576 4.25 6.25 4.25H5ZM8.75 4.25C8.58424 4.25 8.42527 4.18415 8.30806 4.06694C8.19085 3.94973 8.125 3.79076 8.125 3.625C8.125 3.45924 8.19085 3.30027 8.30806 3.18306C8.42527 3.06585 8.58424 3 8.75 3H11.875C12.0408 3 12.1997 3.06585 12.3169 3.18306C12.4342 3.30027 12.5 3.45924 12.5 3.625V6.75C12.5 6.91576 12.4342 7.07473 12.3169 7.19194C12.1997 7.30915 12.0408 7.375 11.875 7.375C11.7092 7.375 11.5503 7.30915 11.4331 7.19194C11.3158 7.07473 11.25 6.91576 11.25 6.75V5.13375L9.1925 7.1925C9.13439 7.25061 9.0654 7.29671 8.98948 7.32815C8.91356 7.3596 8.83218 7.37579 8.75 7.37579C8.66782 7.37579 8.58644 7.3596 8.51052 7.32815C8.4346 7.29671 8.36561 7.25061 8.3075 7.1925C8.24939 7.13439 8.20329 7.0654 8.17185 6.98948C8.1404 6.91356 8.12421 6.83218 8.12421 6.75C8.12421 6.66782 8.1404 6.58644 8.17185 6.51052C8.20329 6.4346 8.24939 6.36561 8.3075 6.3075L10.3663 4.25H8.75Z" fill="white"/>
</svg>
