<svg width="24" height="24" viewBox="0 0 24 24" fill="none" xmlns="http://www.w3.org/2000/svg">
<path d="M5.88889 20C5.36945 20 4.92461 19.8149 4.55439 19.4447C4.18417 19.0744 3.99937 18.6299 4 18.1111V4.88889C4 4.36945 4.18511 3.92461 4.55533 3.55439C4.92556 3.18417 5.37008 2.99937 5.88889 3H19.1111C19.6306 3 20.0754 3.18511 20.4456 3.55533C20.8158 3.92556 21.0006 4.37008 21 4.88889V18.1111C21 18.6306 20.8149 19.0754 20.4447 19.4456C20.0744 19.8158 19.6299 20.0006 19.1111 20H5.88889ZM12.5 11.5L14.8611 10.0833L17.2222 11.5V4.88889H12.5V11.5Z" fill="#A1A0A3"/>
</svg>
