<svg width="15" height="16" viewBox="0 0 15 16" fill="none" xmlns="http://www.w3.org/2000/svg">
<path d="M2.57812 13.625C2.143 13.625 1.7257 13.4521 1.41803 13.1445C1.11035 12.8368 0.9375 12.4195 0.9375 11.9844V9.64062C0.9375 9.45414 1.01158 9.2753 1.14344 9.14344C1.2753 9.01158 1.45414 8.9375 1.64062 8.9375C1.82711 8.9375 2.00595 9.01158 2.13781 9.14344C2.26967 9.2753 2.34375 9.45414 2.34375 9.64062V11.9844C2.34375 12.1137 2.44875 12.2188 2.57812 12.2188H12.4219C12.484 12.2188 12.5436 12.1941 12.5876 12.1501C12.6316 12.1061 12.6562 12.0465 12.6562 11.9844V9.64062C12.6562 9.45414 12.7303 9.2753 12.8622 9.14344C12.9941 9.01158 13.1729 8.9375 13.3594 8.9375C13.5459 8.9375 13.7247 9.01158 13.8566 9.14344C13.9884 9.2753 14.0625 9.45414 14.0625 9.64062V11.9844C14.0625 12.4195 13.8896 12.8368 13.582 13.1445C13.2743 13.4521 12.857 13.625 12.4219 13.625H2.57812Z" fill="#3A36E7"/>
<path d="M6.79644 7.70844V2.375C6.79644 2.18852 6.87052 2.00968 7.00238 1.87782C7.13424 1.74595 7.31308 1.67188 7.49956 1.67188C7.68604 1.67188 7.86488 1.74595 7.99675 1.87782C8.12861 2.00968 8.20269 2.18852 8.20269 2.375V7.70844L10.0496 5.8625C10.1148 5.79725 10.1923 5.74549 10.2775 5.71018C10.3628 5.67486 10.4542 5.65669 10.5464 5.65669C10.6387 5.65669 10.7301 5.67486 10.8153 5.71018C10.9006 5.74549 10.9781 5.79725 11.0433 5.8625C11.1086 5.92775 11.1603 6.00521 11.1956 6.09047C11.2309 6.17572 11.2491 6.2671 11.2491 6.35938C11.2491 6.45165 11.2309 6.54303 11.1956 6.62828C11.1603 6.71354 11.1086 6.791 11.0433 6.85625L7.99644 9.90312C7.93122 9.96844 7.85377 10.0202 7.76851 10.0556C7.68325 10.0909 7.59186 10.1091 7.49956 10.1091C7.40727 10.1091 7.31587 10.0909 7.23062 10.0556C7.14536 10.0202 7.0679 9.96844 7.00269 9.90312L3.95581 6.85625C3.89056 6.791 3.8388 6.71354 3.80349 6.62828C3.76818 6.54303 3.75 6.45165 3.75 6.35938C3.75 6.2671 3.76818 6.17572 3.80349 6.09047C3.8388 6.00521 3.89056 5.92775 3.95581 5.8625C4.02106 5.79725 4.09853 5.74549 4.18378 5.71018C4.26903 5.67486 4.36041 5.65669 4.45269 5.65669C4.54497 5.65669 4.63634 5.67486 4.72159 5.71018C4.80685 5.74549 4.88431 5.79725 4.94956 5.8625L6.79644 7.70844Z" fill="#3A36E7"/>
</svg>
