<svg width="24" height="24" viewBox="0 0 24 24" fill="none" xmlns="http://www.w3.org/2000/svg">
<path d="M3.53003 2.47082C3.38785 2.33834 3.19981 2.26622 3.00551 2.26965C2.81121 2.27308 2.62582 2.35179 2.48841 2.4892C2.35099 2.62661 2.27228 2.812 2.26885 3.0063C2.26543 3.2006 2.33755 3.38865 2.47003 3.53082L20.47 21.5308C20.5387 21.6045 20.6215 21.6636 20.7135 21.7046C20.8055 21.7456 20.9048 21.7676 21.0055 21.7694C21.1062 21.7712 21.2062 21.7527 21.2996 21.7149C21.393 21.6772 21.4778 21.6211 21.5491 21.5499C21.6203 21.4786 21.6764 21.3938 21.7142 21.3004C21.7519 21.207 21.7704 21.107 21.7686 21.0063C21.7668 20.9056 21.7448 20.8063 21.7038 20.7143C21.6628 20.6223 21.6037 20.5395 21.53 20.4708L3.53003 2.47082ZM22.676 12.5538C22.137 14.1713 21.2373 15.6451 20.045 16.8638L16.946 13.7648C17.2804 12.8287 17.3421 11.817 17.124 10.8472C16.906 9.87742 16.4171 8.98947 15.7142 8.28661C15.0114 7.58375 14.1234 7.09486 13.1536 6.8768C12.1839 6.65875 11.1721 6.72048 10.236 7.05482L7.75903 4.57782C9.10605 4.02978 10.5468 3.7489 12.001 3.75082C16.971 3.75082 21.186 6.97382 22.676 11.4408C22.796 11.8028 22.796 12.1928 22.676 12.5538Z" fill="#727586"/>
<path d="M15.75 12.0008C15.75 12.1808 15.737 12.3578 15.713 12.5308L11.469 8.28779C12.001 8.21169 12.5431 8.25082 13.0586 8.40253C13.5741 8.55424 14.0511 8.81498 14.457 9.16708C14.863 9.51919 15.1885 9.95444 15.4116 10.4433C15.6347 10.9323 15.7501 11.4634 15.75 12.0008ZM12.53 15.7138L8.28698 11.4698C8.20453 12.0463 8.25748 12.634 8.44162 13.1865C8.62577 13.7389 8.93604 14.2409 9.34787 14.6526C9.75969 15.0644 10.2618 15.3745 10.8143 15.5585C11.3668 15.7426 11.9545 15.7954 12.531 15.7128L12.53 15.7138Z" fill="#727586"/>
<path d="M6.75001 12.0007C6.75001 11.3817 6.85701 10.7877 7.05401 10.2367L3.95401 7.13672C2.76211 8.35556 1.8628 9.82934 1.32401 11.4467C1.20401 11.8087 1.20401 12.1987 1.32401 12.5607C2.81301 17.0277 7.02801 20.2507 11.999 20.2507C13.499 20.2507 14.932 19.9567 16.241 19.4237L13.764 16.9467C12.9717 17.2294 12.123 17.3175 11.2895 17.2036C10.456 17.0898 9.662 16.7773 8.97449 16.2925C8.28697 15.8077 7.72603 15.1647 7.33891 14.4179C6.95178 13.671 6.74981 12.842 6.75001 12.0007Z" fill="#727586"/>
</svg>
