<svg width="20" height="20" viewBox="0 0 20 20" fill="none" xmlns="http://www.w3.org/2000/svg">
<path d="M10 0.230469C4.477 0.230469 0 4.71447 0 10.2475C0 14.6725 2.865 18.4275 6.839 19.7515C7.339 19.8435 7.521 19.5345 7.521 19.2685C7.521 19.0315 7.513 18.4005 7.508 17.5655C4.726 18.1705 4.139 16.2225 4.139 16.2225C3.685 15.0645 3.029 14.7565 3.029 14.7565C2.121 14.1365 3.098 14.1485 3.098 14.1485C4.101 14.2185 4.629 15.1805 4.629 15.1805C5.521 16.7105 6.97 16.2685 7.539 16.0125C7.631 15.3655 7.889 14.9245 8.175 14.6745C5.955 14.4215 3.62 13.5615 3.62 9.72347C3.62 8.63047 4.01 7.73547 4.649 7.03547C4.546 6.78247 4.203 5.76347 4.747 4.38547C4.747 4.38547 5.587 4.11547 7.497 5.41147C8.31277 5.18898 9.15444 5.07566 10 5.07447C10.8459 5.07588 11.6878 5.1892 12.504 5.41147C14.413 4.11547 15.251 4.38447 15.251 4.38447C15.797 5.76347 15.453 6.78247 15.351 7.03547C15.991 7.73547 16.379 8.63047 16.379 9.72347C16.379 13.5715 14.04 14.4185 11.813 14.6665C12.172 14.9755 12.491 15.5865 12.491 16.5215C12.491 17.8595 12.479 18.9405 12.479 19.2685C12.479 19.5365 12.659 19.8485 13.167 19.7505C15.1582 19.0824 16.8892 17.8056 18.1153 16.1004C19.3414 14.3952 20.0007 12.3477 20 10.2475C20 4.71447 15.522 0.230469 10 0.230469Z" fill="#6B7280"/>
</svg>
