<svg width="155" height="46" viewBox="0 0 155 46" fill="none" xmlns="http://www.w3.org/2000/svg">
<g clip-path="url(#clip0_240_1302)">
<path d="M149.259 0H5.74074C2.57022 0 0 2.57436 0 5.75V40.25C0 43.4256 2.57022 46 5.74074 46H149.259C152.43 46 155 43.4256 155 40.25V5.75C155 2.57436 152.43 0 149.259 0Z" fill="black"/>
<path d="M149.259 0.92C150.538 0.92 151.765 1.42887 152.669 2.33467C153.573 3.24047 154.081 4.469 154.081 5.75V40.25C154.081 41.531 153.573 42.7595 152.669 43.6653C151.765 44.5711 150.538 45.08 149.259 45.08H5.74074C4.46181 45.08 3.23526 44.5711 2.33091 43.6653C1.42657 42.7595 0.918519 41.531 0.918519 40.25V5.75C0.918519 4.469 1.42657 3.24047 2.33091 2.33467C3.23526 1.42887 4.46181 0.92 5.74074 0.92H149.259ZM149.259 0H5.74074C4.2182 0 2.75802 0.605802 1.68142 1.68414C0.604826 2.76247 0 4.22501 0 5.75V40.25C0 41.775 0.604826 43.2375 1.68142 44.3159C2.75802 45.3942 4.2182 46 5.74074 46H149.259C150.782 46 152.242 45.3942 153.319 44.3159C154.395 43.2375 155 41.775 155 40.25V5.75C155 4.22501 154.395 2.76247 153.319 1.68414C152.242 0.605802 150.782 0 149.259 0Z" fill="#A6A6A6"/>
<path d="M54.4453 11.7755C54.4642 12.1972 54.3976 12.6184 54.2496 13.0137C54.1016 13.409 53.8753 13.7702 53.5842 14.0755C53.2581 14.4128 52.8645 14.6773 52.4292 14.8517C51.9939 15.0261 51.5267 15.1064 51.0583 15.0875C50.5872 15.098 50.1189 15.0116 49.6824 14.8336C49.246 14.6555 48.8507 14.3897 48.5209 14.0525C47.8519 13.3671 47.4773 12.4466 47.4773 11.488C47.4773 10.5294 47.8519 9.60895 48.5209 8.92351C49.0324 8.42289 49.6802 8.08485 50.3829 7.95186C51.0856 7.81886 51.8119 7.89685 52.4705 8.17601C52.8846 8.34647 53.2538 8.61011 53.5498 8.94651L52.9413 9.55601C52.7133 9.2809 52.4244 9.06282 52.0975 8.91908C51.7706 8.77535 51.4148 8.70993 51.0583 8.72801C50.6083 8.73113 50.1658 8.84461 49.7697 9.05853C49.3735 9.27246 49.0357 9.58032 48.7858 9.9552C48.5358 10.3301 48.3814 10.7606 48.3359 11.2091C48.2904 11.6575 48.3553 12.1103 48.5249 12.5279C48.6945 12.9455 48.9636 13.3151 49.3087 13.6044C49.6538 13.8937 50.0645 14.094 50.5047 14.1877C50.9449 14.2814 51.4014 14.2656 51.8341 14.1418C52.2669 14.018 52.6628 13.7899 52.9872 13.4775C53.3379 13.0924 53.5413 12.5954 53.5613 12.0745H51.0583V11.2465H54.3994C54.4256 11.4217 54.4409 11.5984 54.4453 11.7755Z" fill="white" stroke="white" stroke-width="0.215828" stroke-miterlimit="10"/>
<path d="M59.7036 8.9008H56.6036V11.0858H59.428V11.9138H56.6036V14.0988H59.7036V14.9498H55.708V8.0498H59.7036V8.9008Z" fill="white" stroke="white" stroke-width="0.215828" stroke-miterlimit="10"/>
<path d="M63.4697 14.9498H62.5856V8.9008H60.6567V8.0498H65.4445V8.9008H63.4697V14.9498Z" fill="white" stroke="white" stroke-width="0.215828" stroke-miterlimit="10"/>
<path d="M68.8201 14.9498V8.0498H69.7041V14.9498H68.8201Z" fill="white" stroke="white" stroke-width="0.215828" stroke-miterlimit="10"/>
<path d="M73.6306 14.9498H72.7465V8.9008H70.8176V8.0498H75.548V8.9008H73.6306V14.9498Z" fill="white" stroke="white" stroke-width="0.215828" stroke-miterlimit="10"/>
<path d="M84.5152 14.0531C84.1836 14.3855 83.7898 14.6492 83.3564 14.8291C82.923 15.009 82.4584 15.1016 81.9893 15.1016C81.5201 15.1016 81.0555 15.009 80.6221 14.8291C80.1887 14.6492 79.795 14.3855 79.4633 14.0531C78.8143 13.362 78.4529 12.4489 78.4529 11.5001C78.4529 10.5512 78.8143 9.63816 79.4633 8.94707C79.7878 8.60529 80.1803 8.33554 80.6154 8.15527C81.0505 7.975 81.5186 7.88823 81.9893 7.90057C82.4593 7.89312 82.9259 7.98213 83.3603 8.1621C83.7947 8.34208 84.1878 8.60922 84.5152 8.94707C84.8453 9.28343 85.1048 9.68264 85.2784 10.1211C85.4519 10.5596 85.536 11.0285 85.5256 11.5001C85.5406 11.9722 85.4587 12.4424 85.2849 12.8816C85.1111 13.3208 84.8491 13.7195 84.5152 14.0531ZM80.1178 13.4781C80.3624 13.7263 80.6538 13.9234 80.975 14.058C81.2963 14.1925 81.6411 14.2618 81.9893 14.2618C82.3375 14.2618 82.6822 14.1925 83.0035 14.058C83.3248 13.9234 83.6162 13.7263 83.8608 13.4781C84.3562 12.9389 84.6312 12.2328 84.6312 11.5001C84.6312 10.7673 84.3562 10.0613 83.8608 9.52207C83.6162 9.27381 83.3248 9.07668 83.0035 8.94214C82.6822 8.8076 82.3375 8.73832 81.9893 8.73832C81.6411 8.73832 81.2963 8.8076 80.975 8.94214C80.6538 9.07668 80.3624 9.27381 80.1178 9.52207C79.6224 10.0613 79.3474 10.7673 79.3474 11.5001C79.3474 12.2328 79.6224 12.9389 80.1178 13.4781Z" fill="white" stroke="white" stroke-width="0.215828" stroke-miterlimit="10"/>
<path d="M86.7769 14.9498V8.0498H87.8446L91.1972 13.4203V12.0863V8.0498H92.0813V14.9498H91.1628L87.6609 9.32631V10.6488V14.9498H86.7769Z" fill="white" stroke="white" stroke-width="0.215828" stroke-miterlimit="10"/>
<path d="M78.2348 25.0133C77.2675 25.0156 76.3225 25.3051 75.5194 25.8453C74.7164 26.3855 74.0912 27.1521 73.7232 28.0481C73.3551 28.9442 73.2605 29.9294 73.4515 30.8793C73.6424 31.8292 74.1103 32.701 74.7959 33.3845C75.4816 34.068 76.3542 34.5326 77.3034 34.7194C78.2526 34.9062 79.2358 34.8068 80.1287 34.434C81.0215 34.0611 81.784 33.4314 82.3195 32.6245C82.8551 31.8176 83.1397 30.8697 83.1374 29.9008C83.1468 29.2544 83.0262 28.6128 82.7829 28.014C82.5395 27.4153 82.1783 26.8718 81.7209 26.4157C81.2635 25.9597 80.7191 25.6005 80.1202 25.3596C79.5213 25.1186 78.8801 25.0009 78.2348 25.0133ZM78.2348 32.8678C77.6419 32.9093 77.0502 32.7712 76.5367 32.4715C76.0232 32.1717 75.6115 31.7242 75.3553 31.187C75.0991 30.6498 75.0101 30.0478 75.1 29.4594C75.1899 28.8709 75.4545 28.3231 75.8593 27.8872C76.2641 27.4513 76.7905 27.1475 77.37 27.0152C77.9495 26.8829 78.5554 26.9283 79.1088 27.1455C79.6622 27.3627 80.1376 27.7416 80.4732 28.233C80.8087 28.7243 80.9889 29.3055 80.9904 29.9008C81.0089 30.278 80.9518 30.6551 80.8225 31.0099C80.6931 31.3646 80.4942 31.6899 80.2374 31.9664C79.9806 32.2429 79.6711 32.4651 79.3271 32.62C78.9832 32.7748 78.6118 32.859 78.2348 32.8678ZM67.5341 25.0133C66.5667 25.0156 65.6218 25.3051 64.8187 25.8453C64.0156 26.3855 63.3905 27.1521 63.0224 28.0481C62.6543 28.9442 62.5598 29.9294 62.7507 30.8793C62.9417 31.8292 63.4095 32.701 64.0952 33.3845C64.7808 34.068 65.6534 34.5326 66.6026 34.7194C67.5519 34.9062 68.5351 34.8068 69.4279 34.434C70.3208 34.0611 71.0832 33.4314 71.6188 32.6245C72.1543 31.8176 72.439 30.8697 72.4367 29.9008C72.446 29.2544 72.3255 28.6128 72.0821 28.014C71.8388 27.4153 71.4776 26.8718 71.0202 26.4157C70.5627 25.9597 70.0184 25.6005 69.4195 25.3596C68.8206 25.1186 68.1794 25.0009 67.5341 25.0133ZM67.5341 32.8678C66.9412 32.9093 66.3495 32.7712 65.8359 32.4715C65.3224 32.1717 64.9108 31.7242 64.6546 31.187C64.3983 30.6498 64.3094 30.0478 64.3993 29.4594C64.4892 28.8709 64.7537 28.3231 65.1585 27.8872C65.5634 27.4513 66.0898 27.1475 66.6693 27.0152C67.2488 26.8829 67.8546 26.9283 68.4081 27.1455C68.9615 27.3627 69.4369 27.7416 69.7724 28.233C70.108 28.7243 70.2882 29.3055 70.2897 29.9008C70.3081 30.278 70.251 30.6551 70.1217 31.0099C69.9924 31.3646 69.7934 31.6899 69.5366 31.9664C69.2798 32.2429 68.9703 32.4651 68.6264 32.62C68.2825 32.7748 67.9111 32.859 67.5341 32.8678ZM54.8126 26.5198V28.5898H59.7726C59.6948 29.5648 59.2902 30.4848 58.6245 31.2003C58.1269 31.708 57.5285 32.1055 56.8679 32.367C56.2073 32.6285 55.4993 32.7482 54.7897 32.7183C53.328 32.7183 51.9262 32.1367 50.8927 31.1015C49.8592 30.0663 49.2785 28.6623 49.2785 27.1983C49.2785 25.7343 49.8592 24.3303 50.8927 23.2951C51.9262 22.2599 53.328 21.6783 54.7897 21.6783C56.1909 21.6574 57.5439 22.1904 58.5556 23.1618L60.0137 21.7013C59.3294 21.0234 58.5169 20.4891 57.6238 20.1297C56.7307 19.7703 55.775 19.593 54.8126 19.6083C53.7919 19.5685 52.7737 19.7355 51.819 20.0993C50.8642 20.4631 49.9927 21.0162 49.2564 21.7255C48.5202 22.4347 47.9346 23.2855 47.5345 24.2269C47.1344 25.1683 46.9282 26.1809 46.9282 27.204C46.9282 28.2272 47.1344 29.2398 47.5345 30.1812C47.9346 31.1226 48.5202 31.9734 49.2564 32.6826C49.9927 33.3919 50.8642 33.945 51.819 34.3088C52.7737 34.6726 53.7919 34.8396 54.8126 34.7998C55.7948 34.8391 56.7741 34.6698 57.6863 34.3032C58.5985 33.9365 59.423 33.3807 60.1056 32.6723C61.3113 31.3457 61.9537 29.6009 61.8967 27.8078C61.9008 27.3762 61.8662 26.9452 61.7934 26.5198H54.8126ZM106.835 28.1298C106.536 27.2474 105.976 26.477 105.23 25.9205C104.483 25.3639 103.586 25.0476 102.656 25.0133C102.028 25.0121 101.406 25.1399 100.83 25.3888C100.253 25.6377 99.7331 26.0025 99.3026 26.4606C98.8722 26.9187 98.5401 27.4603 98.327 28.052C98.1138 28.6437 98.0241 29.273 98.0634 29.9008C98.0535 30.9506 98.3831 31.9754 99.0027 32.8221C99.6223 33.6688 100.499 34.2921 101.501 34.5987C102.504 34.9054 103.578 34.879 104.564 34.5235C105.551 34.168 106.396 33.5024 106.973 32.6263L105.308 31.4763C105.06 31.8906 104.708 32.2327 104.287 32.4688C103.866 32.7048 103.391 32.8265 102.909 32.8218C102.411 32.8424 101.919 32.7117 101.497 32.4469C101.074 32.1822 100.742 31.7957 100.543 31.3383L107.076 28.6358L106.835 28.1298ZM100.176 29.7628C100.153 29.4056 100.201 29.0473 100.317 28.7089C100.434 28.3706 100.617 28.059 100.856 27.7923C101.094 27.5256 101.383 27.3093 101.706 27.156C102.029 27.0026 102.379 26.9154 102.736 26.8993C103.106 26.8767 103.475 26.9639 103.795 27.1501C104.116 27.3362 104.375 27.613 104.539 27.9458L100.176 29.7628ZM94.8715 34.5008H97.0185V20.1258H94.8715V34.5008ZM91.3582 26.1058H91.2778C90.9571 25.7399 90.5612 25.4478 90.1173 25.2493C89.6735 25.0508 89.192 24.9507 88.706 24.9558C87.4512 25.0167 86.268 25.5589 85.4016 26.4699C84.5351 27.3808 84.0517 28.5908 84.0517 29.849C84.0517 31.1073 84.5351 32.3172 85.4016 33.2282C86.268 34.1392 87.4512 34.6813 88.706 34.7423C89.1927 34.7521 89.6756 34.6541 90.1202 34.4553C90.5648 34.2565 90.9601 33.9618 91.2778 33.5923H91.3582V34.2938C91.3582 36.1683 90.3593 37.1688 88.7519 37.1688C88.2149 37.157 87.6936 36.9856 87.2541 36.6764C86.8145 36.3672 86.4767 35.9342 86.2834 35.4323L84.4234 36.2028C84.7672 37.0679 85.3651 37.8081 86.138 38.3255C86.9109 38.843 87.8223 39.1133 88.7519 39.1008C91.2663 39.1008 93.3445 37.6173 93.3445 34.0063V25.3008H91.3582V26.1058ZM88.8897 32.8678C88.1374 32.8208 87.4313 32.4884 86.9152 31.9382C86.3991 31.388 86.1118 30.6615 86.1118 29.9065C86.1118 29.1516 86.3991 28.4251 86.9152 27.8749C87.4313 27.3247 88.1374 26.9923 88.8897 26.9453C89.2573 26.9612 89.6181 27.051 89.9504 27.2094C90.2827 27.3678 90.5798 27.5915 90.8241 27.8672C91.0683 28.143 91.2546 28.4651 91.372 28.8145C91.4894 29.1638 91.5355 29.5332 91.5074 29.9008C91.5388 30.2696 91.4951 30.6409 91.379 30.9923C91.263 31.3437 91.077 31.6679 90.8323 31.9452C90.5876 32.2226 90.2893 32.4473 89.9554 32.6059C89.6215 32.7645 89.2589 32.8536 88.8897 32.8678ZM116.893 20.1258H111.749V34.5008H113.896V29.0498H116.893C117.505 29.0938 118.119 29.0111 118.698 28.8068C119.276 28.6025 119.807 28.2811 120.256 27.8624C120.705 27.4438 121.063 26.9369 121.308 26.3735C121.553 25.8102 121.679 25.2023 121.679 24.5878C121.679 23.9733 121.553 23.3654 121.308 22.802C121.063 22.2386 120.705 21.7318 120.256 21.3132C119.807 20.8945 119.276 20.573 118.698 20.3688C118.119 20.1645 117.505 20.0818 116.893 20.1258ZM116.893 27.0258H113.896V22.1268H116.939C117.262 22.1268 117.581 22.1904 117.879 22.3141C118.177 22.4378 118.448 22.6191 118.676 22.8476C118.904 23.0761 119.085 23.3474 119.209 23.646C119.332 23.9446 119.396 24.2646 119.396 24.5878C119.396 24.911 119.332 25.231 119.209 25.5296C119.085 25.8282 118.904 26.0995 118.676 26.328C118.448 26.5565 118.177 26.7378 117.879 26.8615C117.581 26.9851 117.262 27.0488 116.939 27.0488L116.893 27.0258ZM130.143 24.9673C129.361 24.919 128.582 25.1013 127.902 25.4917C127.223 25.8821 126.672 26.4634 126.319 27.1638L128.214 27.9573C128.405 27.6116 128.692 27.3288 129.041 27.1431C129.389 26.9574 129.784 26.8767 130.177 26.9108C130.45 26.8789 130.726 26.9017 130.989 26.9779C131.253 27.054 131.499 27.182 131.713 27.3544C131.926 27.5267 132.104 27.74 132.234 27.9817C132.365 28.2234 132.446 28.4888 132.473 28.7623V28.9003C131.783 28.5368 131.014 28.3473 130.234 28.3483C128.191 28.3483 126.101 29.4983 126.101 31.5913C126.121 32.0362 126.231 32.4724 126.422 32.8742C126.614 33.2759 126.885 33.6349 127.218 33.9299C127.551 34.2249 127.94 34.4499 128.361 34.5914C128.783 34.7329 129.229 34.7882 129.672 34.7538C130.211 34.7836 130.748 34.6694 131.228 34.4229C131.708 34.1764 132.114 33.8063 132.404 33.3508H132.473V34.5008H134.54V28.9693C134.54 26.4508 132.634 24.9903 130.189 24.9903L130.143 24.9673ZM129.879 32.8448C129.178 32.8448 128.202 32.4883 128.202 31.6258C128.202 30.4758 129.419 30.0848 130.499 30.0848C131.181 30.0679 131.855 30.2347 132.45 30.5678C132.378 31.1923 132.083 31.7695 131.618 32.1924C131.154 32.6153 130.552 32.8553 129.924 32.8678L129.879 32.8448ZM142.072 25.3008L139.615 31.5338H139.546L136.997 25.3008H134.701L138.524 34.0178L136.343 38.8593H138.582L144.46 25.3008H142.072ZM122.783 34.5008H124.919V20.1258H122.783V34.5008Z" fill="white"/>
<path d="M11.9865 8.67132C11.6081 9.11938 11.4151 9.69535 11.4468 10.2813V35.7193C11.4078 36.3063 11.6017 36.8849 11.9865 37.3293L12.0668 37.4213L26.2924 23.1728V22.8278L12.0668 8.59082L11.9865 8.67132Z" fill="url(#paint0_linear_240_1302)"/>
<path d="M31.0001 27.9221L26.2927 23.1726V22.8276L31.0001 18.0781L31.1035 18.1471L36.7409 21.3441C38.3483 22.2526 38.3483 23.7476 36.7409 24.6676L31.1264 27.8646L31.0001 27.9221Z" fill="url(#paint1_linear_240_1302)"/>
<path d="M31.1377 27.852L26.2925 22.999L11.9866 37.328C12.311 37.6173 12.7263 37.7837 13.1604 37.7984C13.5945 37.8131 14.02 37.6752 14.3632 37.4085L31.1377 27.852Z" fill="url(#paint2_linear_240_1302)"/>
<path d="M31.1377 18.1469L14.3632 8.60194C14.0223 8.33159 13.597 8.19031 13.1624 8.20293C12.7277 8.21555 12.3113 8.38126 11.9866 8.67094L26.2925 22.9999L31.1377 18.1469Z" fill="url(#paint3_linear_240_1302)"/>
<path opacity="0.2" d="M30.9999 27.749L14.3632 37.2365C14.0325 37.4865 13.6294 37.6218 13.2151 37.6218C12.8007 37.6218 12.3977 37.4865 12.0669 37.2365L11.9866 37.317L12.0669 37.409C12.3977 37.659 12.8007 37.7943 13.2151 37.7943C13.6294 37.7943 14.0325 37.659 14.3632 37.409L31.1377 27.8525L30.9999 27.749Z" fill="black"/>
<path opacity="0.12" d="M11.9866 37.1684C11.6178 36.7122 11.4371 36.1321 11.4814 35.5469V35.7194C11.4424 36.3063 11.6363 36.8849 12.0211 37.3294L12.1014 37.2489L11.9866 37.1684Z" fill="black"/>
<path opacity="0.12" d="M36.7407 24.494L31 27.7485L31.1033 27.852L36.7407 24.655C37.0735 24.5141 37.3622 24.2859 37.5764 23.9945C37.7905 23.703 37.9223 23.3591 37.9578 22.999C37.886 23.3263 37.7385 23.6321 37.5271 23.8917C37.3157 24.1514 37.0463 24.3577 36.7407 24.494Z" fill="black"/>
<path opacity="0.25" d="M14.3631 8.76332L36.7405 21.5053C37.0461 21.6416 37.3154 21.8479 37.5268 22.1076C37.7382 22.3673 37.8857 22.6731 37.9575 23.0003C37.922 22.6402 37.7903 22.2963 37.5761 22.0049C37.3619 21.7134 37.0733 21.4852 36.7405 21.3443L14.3631 8.60232C12.7671 7.68232 11.4468 8.44132 11.4468 10.2813V10.4538C11.4812 8.61382 12.7671 7.85482 14.3631 8.76332Z" fill="white"/>
</g>
<defs>
<linearGradient id="paint0_linear_240_1302" x1="25.0294" y1="10.0168" x2="5.73245" y2="29.2827" gradientUnits="userSpaceOnUse">
<stop stop-color="#00A0FF"/>
<stop offset="0.01" stop-color="#00A1FF"/>
<stop offset="0.26" stop-color="#00BEFF"/>
<stop offset="0.51" stop-color="#00D2FF"/>
<stop offset="0.76" stop-color="#00DFFF"/>
<stop offset="1" stop-color="#00E3FF"/>
</linearGradient>
<linearGradient id="paint1_linear_240_1302" x1="38.842" y1="23.0001" x2="11.0683" y2="23.0001" gradientUnits="userSpaceOnUse">
<stop stop-color="#FFE000"/>
<stop offset="0.41" stop-color="#FFBD00"/>
<stop offset="0.78" stop-color="#FFA500"/>
<stop offset="1" stop-color="#FF9C00"/>
</linearGradient>
<linearGradient id="paint2_linear_240_1302" x1="28.5084" y1="25.644" x2="2.33447" y2="51.7643" gradientUnits="userSpaceOnUse">
<stop stop-color="#FF3A44"/>
<stop offset="1" stop-color="#C31162"/>
</linearGradient>
<linearGradient id="paint3_linear_240_1302" x1="8.38139" y1="0.206942" x2="20.0654" y2="11.8721" gradientUnits="userSpaceOnUse">
<stop stop-color="#32A071"/>
<stop offset="0.07" stop-color="#2DA771"/>
<stop offset="0.48" stop-color="#15CF74"/>
<stop offset="0.8" stop-color="#06E775"/>
<stop offset="1" stop-color="#00F076"/>
</linearGradient>
<clipPath id="clip0_240_1302">
<rect width="155" height="46" fill="white"/>
</clipPath>
</defs>
</svg>
