<svg width="76" height="15" viewBox="0 0 76 15" fill="none" xmlns="http://www.w3.org/2000/svg">
<path d="M2.64416 9.02346V14.1499H0V0.250101H2.64416V1.5213C3.4145 0.541852 4.51797 2.90732e-05 5.74635 2.90732e-05C8.32805 2.90732e-05 10.2019 1.91725 10.2019 5.27238C10.2019 8.62751 8.32805 10.5656 5.74635 10.5656C4.55961 10.5656 3.45614 10.0654 2.64416 9.02346ZM7.4536 5.27238C7.4536 3.54271 6.43342 2.35487 4.91355 2.35487C4.05992 2.35487 3.08138 2.85502 2.64416 3.50104V7.06456C3.08138 7.68974 4.05992 8.21072 4.91355 8.21072C6.43342 8.21072 7.4536 7.02288 7.4536 5.27238Z" fill="#B9B9B9"/>
<path d="M11.3045 9.00261L12.4496 7.14792C13.1783 7.83561 14.6774 8.52331 15.9266 8.52331C17.0717 8.52331 17.613 8.12736 17.613 7.50218C17.613 6.79365 16.7386 6.54358 15.5935 6.31434C13.8654 5.98091 11.6376 5.56413 11.6376 3.16761C11.6376 1.47962 13.1159 2.90732e-05 15.76 2.90732e-05C17.4673 2.90732e-05 18.8206 0.583531 19.7991 1.37542L18.7581 3.18845C18.1543 2.54243 17.0092 2.02144 15.7808 2.02144C14.8231 2.02144 14.1985 2.37571 14.1985 2.95921C14.1985 3.58439 14.9897 3.81362 16.114 4.04286C17.842 4.37629 20.1531 4.83475 20.1531 7.33547C20.1531 9.19017 18.5916 10.5656 15.8017 10.5656C14.0528 10.5656 12.3663 9.98206 11.3045 9.00261Z" fill="#B9B9B9"/>
<path d="M21.7471 14.2541L22.1427 11.8784C22.3717 11.9826 22.7257 12.0452 22.9755 12.0452C23.6626 12.0452 24.1206 11.8576 24.3704 11.3158L24.7452 10.4614L20.6645 0.250101H23.496L26.1193 7.25211L28.7427 0.250101H31.595L26.8689 11.9618C26.1193 13.8582 24.7868 14.3583 23.0588 14.4C22.7465 14.4 22.0802 14.3375 21.7471 14.2541Z" fill="#B9B9B9"/>
<path d="M42.2069 10.3155H39.5628V4.23041C39.5628 2.83418 38.8341 2.35487 37.7098 2.35487C36.6688 2.35487 35.8568 2.93837 35.4196 3.54271V10.3155H32.7754V0.250101H35.4196V1.56298C36.065 0.791924 37.2934 2.90732e-05 38.9382 2.90732e-05C41.1451 2.90732e-05 42.2069 1.25039 42.2069 3.20928V10.3155Z" fill="#B9B9B9"/>
<path d="M44.187 5.27238C44.187 2.35487 46.3314 2.90732e-05 49.392 2.90732e-05C52.3901 2.90732e-05 54.4305 2.25068 54.4305 5.54329V6.12679H46.956C47.1226 7.39799 48.1428 8.46079 49.85 8.46079C50.7869 8.46079 51.8904 8.08569 52.5358 7.46051L53.7018 9.16933C52.6816 10.1071 51.1201 10.5656 49.5586 10.5656C46.498 10.5656 44.187 8.50247 44.187 5.27238ZM49.392 2.1048C47.7472 2.1048 47.0393 3.33432 46.9144 4.33461H51.8696C51.8071 3.376 51.1409 2.1048 49.392 2.1048Z" fill="#B9B9B9"/>
<path d="M75.6764 10.3155H73.0323V9.27353C72.3452 10.0863 71.1585 10.5656 69.8468 10.5656C68.2436 10.5656 66.349 9.48192 66.349 7.23127C66.349 4.87643 68.2436 4.02202 69.8468 4.02202C71.1793 4.02202 72.366 4.43881 73.0323 5.25154V3.8553C73.0323 2.83418 72.1578 2.16732 70.8253 2.16732C69.7427 2.16732 68.7433 2.56327 67.8897 3.35516L66.8903 1.58382C68.1187 0.500173 69.701 2.90732e-05 71.2834 2.90732e-05C73.5736 2.90732e-05 75.6764 0.916959 75.6764 3.81363V10.3155ZM73.0323 7.89813V6.64777C72.595 6.06427 71.7622 5.77252 70.9086 5.77252C69.8676 5.77252 69.014 6.33518 69.014 7.29379C69.014 8.23156 69.8676 8.77338 70.9086 8.77338C71.7622 8.77338 72.595 8.48163 73.0323 7.89813Z" fill="#B9B9B9"/>
<path d="M62.8874 2.90732e-05H65.4728L57.8907 10.3591H55.2792L62.8874 2.90732e-05Z" fill="#B9B9B9"/>
<path d="M57.8823 0H55.2704L57.8823 3.37757H60.4238L57.8823 0Z" fill="#B9B9B9"/>
<path d="M62.9398 7.01631H60.3368L62.9398 10.3765H65.4728L62.9398 7.01631Z" fill="#B9B9B9"/>
</svg>
