<svg width="14" height="15" viewBox="0 0 14 15" fill="none" xmlns="http://www.w3.org/2000/svg">
<path d="M6.06634 8.69967L4.61634 7.24967C4.49412 7.12745 4.34145 7.06923 4.15834 7.07501C3.97479 7.08034 3.8219 7.14412 3.69967 7.26634C3.57745 7.38856 3.51634 7.54412 3.51634 7.73301C3.51634 7.9219 3.57745 8.07745 3.69967 8.19967L5.59967 10.0997C5.7219 10.2219 5.87745 10.283 6.06634 10.283C6.25523 10.283 6.41079 10.2219 6.53301 10.0997L10.3163 6.31634C10.4386 6.19412 10.497 6.04123 10.4917 5.85767C10.4859 5.67456 10.4219 5.5219 10.2997 5.39967C10.1775 5.27745 10.0219 5.21634 9.83301 5.21634C9.64412 5.21634 9.48856 5.27745 9.36634 5.39967L6.06634 8.69967ZM6.99967 14.1663C6.07745 14.1663 5.21079 13.9912 4.39967 13.641C3.58856 13.2912 2.88301 12.8163 2.28301 12.2163C1.68301 11.6163 1.20812 10.9108 0.858341 10.0997C0.508119 9.28856 0.333008 8.4219 0.333008 7.49967C0.333008 6.57745 0.508119 5.71079 0.858341 4.89967C1.20812 4.08856 1.68301 3.38301 2.28301 2.78301C2.88301 2.18301 3.58856 1.7079 4.39967 1.35767C5.21079 1.0079 6.07745 0.833008 6.99967 0.833008C7.9219 0.833008 8.78856 1.0079 9.59967 1.35767C10.4108 1.7079 11.1163 2.18301 11.7163 2.78301C12.3163 3.38301 12.7912 4.08856 13.141 4.89967C13.4912 5.71079 13.6663 6.57745 13.6663 7.49967C13.6663 8.4219 13.4912 9.28856 13.141 10.0997C12.7912 10.9108 12.3163 11.6163 11.7163 12.2163C11.1163 12.8163 10.4108 13.2912 9.59967 13.641C8.78856 13.9912 7.9219 14.1663 6.99967 14.1663ZM6.99967 12.833C8.47745 12.833 9.7359 12.3137 10.775 11.275C11.8137 10.2359 12.333 8.97745 12.333 7.49967C12.333 6.0219 11.8137 4.76345 10.775 3.72434C9.7359 2.68567 8.47745 2.16634 6.99967 2.16634C5.5219 2.16634 4.26367 2.68567 3.22501 3.72434C2.1859 4.76345 1.66634 6.0219 1.66634 7.49967C1.66634 8.97745 2.1859 10.2359 3.22501 11.275C4.26367 12.3137 5.5219 12.833 6.99967 12.833Z" fill="#08875D"/>
</svg>
