<svg width="21" height="20" viewBox="0 0 21 20" fill="none" xmlns="http://www.w3.org/2000/svg">
<path d="M1.81448 0C0.980813 1.3257 0.5 2.85838 0.5 4.49392C0.5 7.87311 2.53492 10.8277 5.54987 12.3955C5.56852 12.105 5.59245 11.8133 5.62507 11.5222C3.0646 10.0507 1.36468 7.45356 1.36468 4.49392C1.36468 2.83465 1.90287 1.29692 2.8253 0H1.81448ZM5.00895 0C3.82381 1.18989 3.09431 2.7623 3.09431 4.49392C3.09431 6.64366 4.20735 8.56176 5.93753 9.79546L5.94031 9.78494C6.01491 9.50675 6.10103 9.23749 6.20362 8.98005C4.82782 7.8902 3.95921 6.28547 3.95921 4.49392C3.95921 2.69063 4.85022 1.09183 6.24694 0H5.00904H5.00895ZM14.7516 0C16.1457 1.09213 17.0394 2.69362 17.0394 4.49392C17.0394 6.22583 16.2275 7.78322 14.931 8.86958C15.0355 9.13396 15.1214 9.41147 15.1927 9.69812C16.847 8.46223 17.9042 6.5887 17.9042 4.494C17.9042 2.76331 17.1725 1.19027 15.988 8.42056e-05H14.7515L14.7516 0ZM18.1486 0C19.077 1.29906 19.6338 2.83603 19.6338 4.49392C19.6338 7.41707 17.9762 9.98632 15.469 11.4671C15.4942 11.7633 15.5121 12.0608 15.5239 12.3561C18.4979 10.7786 20.5 7.84534 20.5 4.49396C20.5 2.85577 20.0028 1.32372 19.1638 4.20627e-05H18.1487L18.1486 0ZM10.4985 0.0959556C7.83186 0.0959556 5.66126 2.07003 5.66126 4.49527C5.66126 5.69917 6.19622 6.79201 7.06113 7.58731C7.25225 7.389 7.47021 7.21624 7.71335 7.07428C6.98014 6.41943 6.52608 5.50713 6.52608 4.49527C6.52608 2.49505 8.29921 0.882454 10.4986 0.882454C12.698 0.882454 14.4712 2.49505 14.4712 4.49527C14.4712 5.46997 14.0497 6.35184 13.3634 7.00063C13.6174 7.13278 13.8444 7.29662 14.0431 7.48601C14.845 6.70043 15.336 5.64867 15.336 4.49522C15.336 2.06999 13.1654 0.0959976 10.4986 0.0959976L10.4985 0.0959556ZM10.3048 2.43441C9.30424 2.55225 8.40888 3.60902 8.40888 4.97134C8.40888 5.7224 8.69455 6.38765 9.11608 6.84816L9.58754 7.36236L8.86304 7.48609C8.31309 7.57977 7.90882 7.84433 7.56582 8.2712C7.22291 8.69808 6.96316 9.29035 6.7805 9.97172C6.44787 11.2132 6.37623 12.7283 6.36554 14.0593H8.17028L8.20059 14.4236L8.65901 20H12.5319L12.9368 14.4263L12.9642 14.0593H14.6822C14.6813 12.7126 14.6642 11.1768 14.3626 9.92576C14.1974 9.23989 13.9465 8.64888 13.5991 8.22655C13.2518 7.80422 12.8284 7.54105 12.2123 7.45453L11.4747 7.35053L11.9418 6.8192C12.345 6.36089 12.6171 5.70414 12.6171 4.97138C12.6171 3.51879 11.6148 2.43698 10.513 2.43698C10.3893 2.43698 10.3151 2.4331 10.3047 2.43432L10.3048 2.43441Z" fill="#58585F"/>
</svg>
