<svg width="13" height="12" viewBox="0 0 13 12" fill="none" xmlns="http://www.w3.org/2000/svg">
<path d="M11.173 3.96935C11.0323 3.82874 10.8416 3.74976 10.6427 3.74976C10.4439 3.74976 10.2531 3.82874 10.1125 3.96935L6.39999 7.68185L2.68749 3.96935C2.54604 3.83273 2.35658 3.75713 2.15994 3.75884C1.96329 3.76055 1.77518 3.83943 1.63612 3.97848C1.49707 4.11754 1.41819 4.30565 1.41648 4.5023C1.41477 4.69894 1.49037 4.8884 1.62699 5.02985L5.86974 9.2726C6.01038 9.4132 6.20112 9.49219 6.39999 9.49219C6.59886 9.49219 6.78959 9.4132 6.93024 9.2726L11.173 5.02985C11.3136 4.8892 11.3926 4.69847 11.3926 4.4996C11.3926 4.30072 11.3136 4.10999 11.173 3.96935Z" fill="#18171A"/>
</svg>
