<svg width="105" height="21" viewBox="0 0 105 21" fill="none" xmlns="http://www.w3.org/2000/svg">
<path d="M3.66873 13.0296V20.1426H0V0.856738H3.66873V2.62051C4.73757 1.26154 6.26862 0.509766 7.97299 0.509766C11.5551 0.509766 14.1549 3.16988 14.1549 7.82508C14.1549 12.4803 11.5551 15.1693 7.97299 15.1693C6.32639 15.1693 4.79535 14.4754 3.66873 13.0296ZM10.3418 7.82508C10.3418 5.42519 8.92628 3.77708 6.81748 3.77708C5.63309 3.77708 4.27537 4.47102 3.66873 5.36736V10.3117C4.27537 11.1791 5.63309 11.902 6.81748 11.902C8.92628 11.902 10.3418 10.2539 10.3418 7.82508Z" fill="#A283FF"/>
<path d="M15.6849 13.0007L17.2737 10.4274C18.2847 11.3815 20.3647 12.3357 22.0979 12.3357C23.6867 12.3357 24.4378 11.7863 24.4378 10.9189C24.4378 9.93582 23.2245 9.58885 21.6357 9.27079C19.238 8.80816 16.1471 8.22988 16.1471 4.90473C16.1471 2.56268 18.1981 0.509766 21.8668 0.509766C24.2356 0.509766 26.1133 1.31937 27.471 2.41811L26.0266 4.93365C25.1889 4.03731 23.6001 3.31445 21.8957 3.31445C20.5669 3.31445 19.7002 3.80599 19.7002 4.61559C19.7002 5.48302 20.798 5.80108 22.3579 6.11913C24.7556 6.58176 27.9621 7.21788 27.9621 10.6876C27.9621 13.261 25.7955 15.1693 21.9246 15.1693C19.498 15.1693 17.1581 14.3597 15.6849 13.0007Z" fill="#A283FF"/>
<path d="M30.1738 20.2871L30.7227 16.9909C31.0404 17.1355 31.5315 17.2222 31.8782 17.2222C32.8315 17.2222 33.467 16.962 33.8137 16.2102L34.3336 15.0247L28.6717 0.856738H32.6004L36.2402 10.5719L39.8801 0.856738H43.8377L37.2802 17.1066C36.2402 19.7378 34.3914 20.4317 31.9937 20.4895C31.5604 20.4895 30.636 20.4028 30.1738 20.2871Z" fill="#A283FF"/>
<path d="M58.5616 14.8223H54.8928V6.37936C54.8928 4.44211 53.8818 3.77708 52.3218 3.77708C50.8774 3.77708 49.7508 4.58668 49.1442 5.42519V14.8223H45.4755V0.856738H49.1442V2.67834C50.0397 1.60851 51.7441 0.509766 54.0262 0.509766C57.0883 0.509766 58.5616 2.24462 58.5616 4.96256V14.8223Z" fill="#A283FF"/>
<path d="M61.3088 7.82508C61.3088 3.77708 64.2842 0.509766 68.5307 0.509766C72.6905 0.509766 75.5215 3.63251 75.5215 8.20096V9.01056H65.1509C65.382 10.7743 66.7975 12.249 69.1662 12.249C70.4662 12.249 71.9972 11.7285 72.8928 10.8611L74.5105 13.232C73.095 14.5332 70.9284 15.1693 68.7618 15.1693C64.5153 15.1693 61.3088 12.3068 61.3088 7.82508ZM68.5307 3.43011C66.2486 3.43011 65.2664 5.13605 65.0931 6.52393H71.9683C71.8817 5.19388 70.9573 3.43011 68.5307 3.43011Z" fill="#A283FF"/>
<path d="M105 14.8223H101.331V13.3766C100.378 14.5043 98.7314 15.1693 96.9115 15.1693C94.6871 15.1693 92.0583 13.6658 92.0583 10.543C92.0583 7.2757 94.6871 6.09022 96.9115 6.09022C98.7603 6.09022 100.407 6.66851 101.331 7.79616V5.85891C101.331 4.44211 100.118 3.51685 98.2692 3.51685C96.767 3.51685 95.3804 4.06622 94.196 5.16496L92.8094 2.70725C94.5138 1.20371 96.7093 0.509766 98.9047 0.509766C102.082 0.509766 105 1.78199 105 5.80108V14.8223ZM101.331 11.4683V9.73342C100.725 8.92382 99.5691 8.51902 98.3847 8.51902C96.9404 8.51902 95.756 9.2997 95.756 10.6298C95.756 11.9309 96.9404 12.6827 98.3847 12.6827C99.5691 12.6827 100.725 12.2779 101.331 11.4683Z" fill="#A283FF"/>
<path d="M87.2559 0.509766H90.8431L80.323 14.8828H76.6995L87.2559 0.509766Z" fill="#6747C7"/>
<path d="M80.3113 0.509766H76.6874L80.3113 5.1961H83.8377L80.3113 0.509766Z" fill="#6747C7"/>
<path d="M87.3287 10.2447H83.717L87.3287 14.9069H90.8431L87.3287 10.2447Z" fill="#6747C7"/>
</svg>
