<svg width="16" height="15" viewBox="0 0 16 15" fill="none" xmlns="http://www.w3.org/2000/svg">
<path fill-rule="evenodd" clip-rule="evenodd" d="M0 1.08691C0 0.821698 0.105357 0.567344 0.292893 0.379807C0.48043 0.192271 0.734784 0.0869141 1 0.0869141H15C15.2652 0.0869141 15.5196 0.192271 15.7071 0.379807C15.8946 0.567344 16 0.821698 16 1.08691C16 1.35213 15.8946 1.60648 15.7071 1.79402C15.5196 1.98156 15.2652 2.08691 15 2.08691H1C0.734784 2.08691 0.48043 1.98156 0.292893 1.79402C0.105357 1.60648 0 1.35213 0 1.08691ZM0 7.08691C0 6.8217 0.105357 6.56734 0.292893 6.37981C0.48043 6.19227 0.734784 6.08691 1 6.08691H15C15.2652 6.08691 15.5196 6.19227 15.7071 6.37981C15.8946 6.56734 16 6.8217 16 7.08691C16 7.35213 15.8946 7.60648 15.7071 7.79402C15.5196 7.98156 15.2652 8.08691 15 8.08691H1C0.734784 8.08691 0.48043 7.98156 0.292893 7.79402C0.105357 7.60648 0 7.35213 0 7.08691ZM0 13.0869C0 12.8217 0.105357 12.5673 0.292893 12.3798C0.48043 12.1923 0.734784 12.0869 1 12.0869H15C15.2652 12.0869 15.5196 12.1923 15.7071 12.3798C15.8946 12.5673 16 12.8217 16 13.0869C16 13.3521 15.8946 13.6065 15.7071 13.794C15.5196 13.9816 15.2652 14.0869 15 14.0869H1C0.734784 14.0869 0.48043 13.9816 0.292893 13.794C0.105357 13.6065 0 13.3521 0 13.0869Z" fill="#111928"/>
</svg>
