<svg width="17" height="19" viewBox="0 0 17 19" fill="none" xmlns="http://www.w3.org/2000/svg">
<path d="M3.21883 7.74918H2.46883H3.21883ZM8.46907 2.49894V1.74894V2.49894ZM1.46875 14.8745C1.05454 14.8745 0.71875 15.2103 0.71875 15.6245C0.71875 16.0388 1.05454 16.3745 1.46875 16.3745V14.8745ZM15.4694 16.3745C15.8836 16.3745 16.2194 16.0388 16.2194 15.6245C16.2194 15.2103 15.8836 14.8745 15.4694 14.8745V16.3745ZM7.59403 17.4997C7.17982 17.4997 6.84403 17.8355 6.84403 18.2497C6.84403 18.6639 7.17982 18.9997 7.59403 18.9997V17.4997ZM9.34411 18.9997C9.75832 18.9997 10.0941 18.6639 10.0941 18.2497C10.0941 17.8355 9.75832 17.4997 9.34411 17.4997V18.9997ZM3.96883 15.6245V7.74918H2.46883V15.6245H3.96883ZM3.96883 7.74918C3.96883 6.55564 4.44296 5.41099 5.28692 4.56703L4.22626 3.50637C3.101 4.63163 2.46883 6.15782 2.46883 7.74918H3.96883ZM5.28692 4.56703C6.13088 3.72307 7.27553 3.24894 8.46907 3.24894V1.74894C6.87771 1.74894 5.35152 2.38111 4.22626 3.50637L5.28692 4.56703ZM8.46907 3.24894C9.66261 3.24894 10.8073 3.72307 11.6512 4.56703L12.7119 3.50637C11.5866 2.38111 10.0604 1.74894 8.46907 1.74894V3.24894ZM11.6512 4.56703C12.4952 5.41099 12.9693 6.55564 12.9693 7.74918H14.4693C14.4693 6.15782 13.8371 4.63163 12.7119 3.50637L11.6512 4.56703ZM12.9693 7.74918V15.6245H14.4693V7.74918H12.9693ZM3.21883 16.3745H13.7193V14.8745H3.21883V16.3745ZM3.21883 14.8745H1.46875V16.3745H3.21883V14.8745ZM13.7193 16.3745H15.4694V14.8745H13.7193V16.3745ZM7.59403 18.9997H9.34411V17.4997H7.59403V18.9997ZM8.59392 1.62504C8.59392 1.6941 8.53794 1.75008 8.46888 1.75008V3.25008C9.36637 3.25008 10.0939 2.52253 10.0939 1.62504H8.59392ZM8.46888 1.75008C8.39982 1.75008 8.34384 1.6941 8.34384 1.62504H6.84384C6.84384 2.52252 7.5714 3.25008 8.46888 3.25008V1.75008ZM8.34384 1.62504C8.34384 1.55598 8.39982 1.5 8.46888 1.5V0C7.5714 0 6.84384 0.727555 6.84384 1.62504H8.34384ZM8.46888 1.5C8.53794 1.5 8.59392 1.55598 8.59392 1.62504H10.0939C10.0939 0.727555 9.36637 0 8.46888 0V1.5Z" fill="#58585F"/>
</svg>
