<svg width="17" height="20" viewBox="0 0 17 20" fill="none" xmlns="http://www.w3.org/2000/svg">
<path d="M3.21883 16.3745V8.49918C3.21883 7.10673 3.77198 5.77131 4.75659 4.7867C5.7412 3.80209 7.07662 3.24894 8.46907 3.24894C9.86152 3.24894 11.1969 3.80209 12.1816 4.7867C13.1662 5.77131 13.7193 7.10673 13.7193 8.49918V16.3745M3.21883 16.3745H13.7193H3.21883ZM3.21883 16.3745H1.46875H3.21883ZM13.7193 16.3745H15.4694H13.7193ZM7.59403 18.9997H9.34411H7.59403Z" fill="#58585F"/>
<path d="M8.46888 3.25008C8.95215 3.25008 9.34392 2.85831 9.34392 2.37504C9.34392 1.89177 8.95215 1.5 8.46888 1.5C7.98561 1.5 7.59384 1.89177 7.59384 2.37504C7.59384 2.85831 7.98561 3.25008 8.46888 3.25008Z" fill="#58585F"/>
<path d="M3.21883 8.49918H2.46883H3.21883ZM8.46907 3.24894V2.49894V3.24894ZM1.46875 15.6245C1.05454 15.6245 0.71875 15.9603 0.71875 16.3745C0.71875 16.7888 1.05454 17.1245 1.46875 17.1245V15.6245ZM15.4694 17.1245C15.8836 17.1245 16.2194 16.7888 16.2194 16.3745C16.2194 15.9603 15.8836 15.6245 15.4694 15.6245V17.1245ZM7.59403 18.2497C7.17982 18.2497 6.84403 18.5855 6.84403 18.9997C6.84403 19.4139 7.17982 19.7497 7.59403 19.7497V18.2497ZM9.34411 19.7497C9.75832 19.7497 10.0941 19.4139 10.0941 18.9997C10.0941 18.5855 9.75832 18.2497 9.34411 18.2497V19.7497ZM3.96883 16.3745V8.49918H2.46883V16.3745H3.96883ZM3.96883 8.49918C3.96883 7.30564 4.44296 6.16099 5.28692 5.31703L4.22626 4.25637C3.101 5.38163 2.46883 6.90782 2.46883 8.49918H3.96883ZM5.28692 5.31703C6.13088 4.47307 7.27553 3.99894 8.46907 3.99894V2.49894C6.87771 2.49894 5.35152 3.13111 4.22626 4.25637L5.28692 5.31703ZM8.46907 3.99894C9.66261 3.99894 10.8073 4.47307 11.6512 5.31703L12.7119 4.25637C11.5866 3.13111 10.0604 2.49894 8.46907 2.49894V3.99894ZM11.6512 5.31703C12.4952 6.16099 12.9693 7.30564 12.9693 8.49918H14.4693C14.4693 6.90782 13.8371 5.38163 12.7119 4.25637L11.6512 5.31703ZM12.9693 8.49918V16.3745H14.4693V8.49918H12.9693ZM3.21883 17.1245H13.7193V15.6245H3.21883V17.1245ZM3.21883 15.6245H1.46875V17.1245H3.21883V15.6245ZM13.7193 17.1245H15.4694V15.6245H13.7193V17.1245ZM7.59403 19.7497H9.34411V18.2497H7.59403V19.7497ZM8.59392 2.37504C8.59392 2.4441 8.53794 2.50008 8.46888 2.50008V4.00008C9.36637 4.00008 10.0939 3.27253 10.0939 2.37504H8.59392ZM8.46888 2.50008C8.39982 2.50008 8.34384 2.4441 8.34384 2.37504H6.84384C6.84384 3.27252 7.5714 4.00008 8.46888 4.00008V2.50008ZM8.34384 2.37504C8.34384 2.30598 8.39982 2.25 8.46888 2.25V0.75C7.5714 0.75 6.84384 1.47756 6.84384 2.37504H8.34384ZM8.46888 2.25C8.53794 2.25 8.59392 2.30598 8.59392 2.37504H10.0939C10.0939 1.47755 9.36637 0.75 8.46888 0.75V2.25Z" fill="#58585F"/>
</svg>
