<svg width="21" height="22" viewBox="0 0 21 22" fill="none" xmlns="http://www.w3.org/2000/svg">
<circle cx="10.5" cy="11" r="10.5" fill="#222124"/>
<path d="M13.9003 7.14615C13.7664 7.07163 13.6191 7.02424 13.4669 7.00669C13.3146 6.98914 13.1604 7.00178 13.0131 7.04387C12.8657 7.08597 12.7281 7.1567 12.6081 7.25202C12.4881 7.34735 12.388 7.46539 12.3137 7.5994L10.1478 11.4972L8.90818 10.2577C8.80056 10.1462 8.67182 10.0573 8.52949 9.9962C8.38715 9.93506 8.23406 9.90287 8.07915 9.90153C7.92424 9.90018 7.77061 9.9297 7.62723 9.98836C7.48385 10.047 7.35359 10.1337 7.24405 10.2432C7.13451 10.3527 7.04788 10.483 6.98922 10.6264C6.93056 10.7698 6.90104 10.9234 6.90239 11.0783C6.90373 11.2332 6.93592 11.3863 6.99706 11.5286C7.05821 11.671 7.14708 11.7997 7.25851 11.9073L9.59185 14.2407C9.81235 14.4617 10.1098 14.5831 10.4167 14.5831L10.5783 14.5714C10.7571 14.5464 10.9277 14.4802 11.0766 14.3781C11.2255 14.2759 11.3486 14.1406 11.4363 13.9828L14.353 8.73282C14.4275 8.59892 14.4748 8.45166 14.4924 8.29945C14.5099 8.14724 14.4973 7.99307 14.4553 7.84573C14.4133 7.69839 14.3426 7.56078 14.2474 7.44075C14.1522 7.32071 14.0343 7.22061 13.9003 7.14615Z" fill="white"/>
</svg>
