<svg width="15" height="16" viewBox="0 0 15 16" fill="none" xmlns="http://www.w3.org/2000/svg">
<path d="M13.4562 4.96875C13.3612 4.91389 13.2534 4.88501 13.1437 4.88501C13.034 4.88501 12.9262 4.91389 12.8312 4.96875L10.625 6.05624C10.6072 5.57098 10.4018 5.11154 10.0521 4.77465C9.70235 4.43775 9.23557 4.24967 8.74998 4.25H3.12499C2.62772 4.25 2.1508 4.44754 1.79917 4.79917C1.44754 5.1508 1.25 5.62771 1.25 6.12499V9.87498C1.25 10.3723 1.44754 10.8492 1.79917 11.2008C2.1508 11.5524 2.62772 11.75 3.12499 11.75H8.74998C9.23557 11.7503 9.70235 11.5622 10.0521 11.2253C10.4018 10.8884 10.6072 10.429 10.625 9.94373L12.85 11.0562C12.9352 11.0999 13.0292 11.1234 13.125 11.125C13.242 11.1253 13.3568 11.0929 13.4562 11.0312C13.5463 10.9749 13.6205 10.8966 13.6719 10.8037C13.7233 10.7107 13.7502 10.6062 13.75 10.5V5.5C13.7502 5.39378 13.7233 5.28926 13.6719 5.19631C13.6205 5.10336 13.5463 5.02504 13.4562 4.96875ZM9.37498 9.87498C9.37498 10.0407 9.30913 10.1997 9.19192 10.3169C9.07471 10.4341 8.91574 10.5 8.74998 10.5H3.12499C2.95923 10.5 2.80026 10.4341 2.68305 10.3169C2.56584 10.1997 2.5 10.0407 2.5 9.87498V6.12499C2.5 5.95923 2.56584 5.80026 2.68305 5.68305C2.80026 5.56584 2.95923 5.5 3.12499 5.5H8.74998C8.91574 5.5 9.07471 5.56584 9.19192 5.68305C9.30913 5.80026 9.37498 5.95923 9.37498 6.12499V9.87498ZM12.5 9.48748L10.625 8.54998V7.44999L12.5 6.51249V9.48748Z" fill="#58585F"/>
</svg>
